<?xml version="1.0" encoding="UTF-8"?>
<!DOCTYPE svg PUBLIC "-//W3C//DTD SVG 1.1//EN" "http://www.w3.org/Graphics/SVG/1.1/DTD/svg11.dtd">
<svg xmlns="http://www.w3.org/2000/svg" version="1.1" width="1024px" height="1024px" style="shape-rendering:geometricPrecision; text-rendering:geometricPrecision; image-rendering:optimizeQuality; fill-rule:evenodd; clip-rule:evenodd" xmlns:xlink="http://www.w3.org/1999/xlink">
<g><path style="opacity:1" fill="#000100" d="M -0.5,-0.5 C 79.5,-0.5 159.5,-0.5 239.5,-0.5C 239.5,-0.166667 239.5,0.166667 239.5,0.5C 229.291,0.287666 219.291,0.954333 209.5,2.5C 194.095,3.56623 179.095,6.23289 164.5,10.5C 158.567,11.5922 152.9,13.2588 147.5,15.5C 120.056,24.8842 95.723,39.3842 74.5,59C 48.1693,82.8285 28.6693,111.329 16,144.5C 12.5714,153.948 10.0714,163.615 8.5,173.5C 6.32223,179.876 4.9889,186.543 4.5,193.5C 3.04269,198.598 2.37603,203.931 2.5,209.5C 1.30506,219.15 0.305061,228.816 -0.5,238.5C -0.5,158.833 -0.5,79.1667 -0.5,-0.5 Z"/></g>
<g><path style="opacity:1" fill="#03d126" d="M 239.5,-0.5 C 420.833,-0.5 602.167,-0.5 783.5,-0.5C 783.5,-0.166667 783.5,0.166667 783.5,0.5C 793.111,2.47435 803.111,3.14101 813.5,2.5C 818.598,3.95731 823.931,4.62397 829.5,4.5C 853.406,7.36175 876.073,14.0284 897.5,24.5C 897.821,26.0481 898.821,26.7148 900.5,26.5C 900.281,27.675 900.614,28.675 901.5,29.5C 903.936,28.1091 904.602,28.6091 903.5,31C 910.18,32.6693 916.18,35.6693 921.5,40C 922.448,40.4828 923.448,40.6495 924.5,40.5C 957.777,63.4391 983.11,93.1058 1000.5,129.5C 1000.34,131.527 1000.5,133.527 1001,135.5C 1003.44,138.376 1004.77,141.71 1005,145.5C 1005.67,146.252 1006.5,146.586 1007.5,146.5C 1007.5,146.833 1007.5,147.167 1007.5,147.5C 1008.37,153.572 1009.54,159.572 1011,165.5C 1011.75,168.503 1012.92,171.169 1014.5,173.5C 1015.59,185.862 1017.59,197.862 1020.5,209.5C 1019.86,219.889 1020.53,229.889 1022.5,239.5C 1022.83,239.5 1023.17,239.5 1023.5,239.5C 1023.5,420.833 1023.5,602.167 1023.5,783.5C 1023.17,783.5 1022.83,783.5 1022.5,783.5C 1020.53,793.111 1019.86,803.111 1020.5,813.5C 1019.78,825.84 1017.78,837.84 1014.5,849.5C 1013.49,852.489 1012.33,855.489 1011,858.5C 1010.5,860.81 1010.34,863.143 1010.5,865.5C 1003.09,893.65 989.927,918.65 971,940.5C 945.874,970.643 915.04,992.809 878.5,1007C 867.769,1010.93 856.769,1013.77 845.5,1015.5C 841.829,1015.72 838.163,1016.06 834.5,1016.5C 832.36,1016.56 830.694,1017.22 829.5,1018.5C 824.25,1018.3 819.25,1018.97 814.5,1020.5C 814.167,1020.5 813.833,1020.5 813.5,1020.5C 803.111,1019.86 793.111,1020.53 783.5,1022.5C 783.5,1022.83 783.5,1023.17 783.5,1023.5C 602.167,1023.5 420.833,1023.5 239.5,1023.5C 239.5,1023.17 239.5,1022.83 239.5,1022.5C 229.889,1020.53 219.889,1019.86 209.5,1020.5C 198.01,1017.59 186.01,1015.59 173.5,1014.5C 168.675,1014.13 164.008,1013.13 159.5,1011.5C 155.674,1009.37 151.674,1007.37 147.5,1005.5C 143.1,1004.62 138.767,1003.62 134.5,1002.5C 95.6232,985.626 64.2899,959.626 40.5,924.5C 40.5228,922.4 39.8561,920.567 38.5,919C 36.0947,915.212 33.428,911.712 30.5,908.5C 27.0734,903.984 24.4068,898.984 22.5,893.5C 22.6602,891.801 22.4935,890.134 22,888.5C 19.592,883.102 17.092,877.769 14.5,872.5C 13.0762,870.485 12.4095,868.152 12.5,865.5C 12.6633,863.143 12.4966,860.81 12,858.5C 11.1477,853.888 9.64772,849.554 7.5,845.5C 4.57002,835.157 2.90336,824.49 2.5,813.5C 2.5,803.5 2.5,793.5 2.5,783.5C 1.5,783.5 0.5,783.5 -0.5,783.5C -0.5,602.167 -0.5,420.833 -0.5,239.5C 0.5,239.5 1.5,239.5 2.5,239.5C 2.5,229.5 2.5,219.5 2.5,209.5C 2.37603,203.931 3.04269,198.598 4.5,193.5C 6.06992,190.126 7.23659,186.459 8,182.5C 8.49796,179.518 8.66463,176.518 8.5,173.5C 10.0714,163.615 12.5714,153.948 16,144.5C 28.6693,111.329 48.1693,82.8285 74.5,59C 95.723,39.3842 120.056,24.8842 147.5,15.5C 153.781,15.4146 159.448,13.748 164.5,10.5C 179.095,6.23289 194.095,3.56623 209.5,2.5C 219.889,3.14101 229.889,2.47435 239.5,0.5C 239.5,0.166667 239.5,-0.166667 239.5,-0.5 Z"/></g>
<g><path style="opacity:1" fill="#000100" d="M 783.5,0.5 C 783.5,0.166667 783.5,-0.166667 783.5,-0.5C 863.5,-0.5 943.5,-0.5 1023.5,-0.5C 1023.5,79.5 1023.5,159.5 1023.5,239.5C 1023.17,239.5 1022.83,239.5 1022.5,239.5C 1022.71,229.291 1022.05,219.291 1020.5,209.5C 1019.78,197.16 1017.78,185.16 1014.5,173.5C 1013.35,164.412 1011.02,155.746 1007.5,147.5C 1007.5,147.167 1007.5,146.833 1007.5,146.5C 1005.73,140.515 1003.4,134.848 1000.5,129.5C 983.11,93.1058 957.777,63.4391 924.5,40.5C 916.333,33.9106 907.333,28.5772 897.5,24.5C 876.073,14.0284 853.406,7.36175 829.5,4.5C 824.384,3.19371 819.051,2.52705 813.5,2.5C 803.709,0.954333 793.709,0.287666 783.5,0.5 Z"/></g>
<g><path style="opacity:1" fill="#28bc3d" d="M 239.5,0.5 C 229.889,2.47435 219.889,3.14101 209.5,2.5C 219.291,0.954333 229.291,0.287666 239.5,0.5 Z"/></g>
<g><path style="opacity:1" fill="#28bb3d" d="M 783.5,0.5 C 793.709,0.287666 803.709,0.954333 813.5,2.5C 803.111,3.14101 793.111,2.47435 783.5,0.5 Z"/></g>
<g><path style="opacity:1" fill="#30b545" d="M 813.5,2.5 C 819.051,2.52705 824.384,3.19371 829.5,4.5C 823.931,4.62397 818.598,3.95731 813.5,2.5 Z"/></g>
<g><path style="opacity:1" fill="#31b643" d="M 164.5,10.5 C 159.448,13.748 153.781,15.4146 147.5,15.5C 152.9,13.2588 158.567,11.5922 164.5,10.5 Z"/></g>
<g><path style="opacity:1" fill="#26c039" d="M 897.5,24.5 C 907.333,28.5772 916.333,33.9106 924.5,40.5C 923.448,40.6495 922.448,40.4828 921.5,40C 916.18,35.6693 910.18,32.6693 903.5,31C 904.602,28.6091 903.936,28.1091 901.5,29.5C 900.614,28.675 900.281,27.675 900.5,26.5C 898.821,26.7148 897.821,26.0481 897.5,24.5 Z"/></g>
<g><path style="opacity:1" fill="#27bd3c" d="M 1000.5,129.5 C 1003.4,134.848 1005.73,140.515 1007.5,146.5C 1006.5,146.586 1005.67,146.252 1005,145.5C 1004.77,141.71 1003.44,138.376 1001,135.5C 1000.5,133.527 1000.34,131.527 1000.5,129.5 Z"/></g>
<g><path style="opacity:1" fill="#26bd3e" d="M 847.5,165.5 C 843.367,164.102 839.034,163.269 834.5,163C 614.834,162.5 395.167,162.333 175.5,162.5C 175.918,161.778 176.584,161.278 177.5,161C 397.497,160.661 617.164,160.328 836.5,160C 833.833,160.667 833.833,161.333 836.5,162C 840.716,161.935 844.382,163.102 847.5,165.5 Z"/></g>
<g><path style="opacity:1" fill="#c7fed3" d="M 172.5,163.5 C 173.209,162.596 174.209,162.263 175.5,162.5C 395.167,162.333 614.834,162.5 834.5,163C 839.034,163.269 843.367,164.102 847.5,165.5C 847.5,165.833 847.5,166.167 847.5,166.5C 842.377,164.919 837.044,164.252 831.5,164.5C 612.001,163.5 392.334,163.167 172.5,163.5 Z"/></g>
<g><path style="opacity:1" fill="#ecfef1" d="M 172.5,163.5 C 392.334,163.167 612.001,163.5 831.5,164.5C 609.812,164.171 388.146,164.504 166.5,165.5C 168.102,163.926 170.102,163.259 172.5,163.5 Z"/></g>
<g><path style="opacity:1" fill="#fefefe" d="M 831.5,164.5 C 837.044,164.252 842.377,164.919 847.5,166.5C 853.501,167.833 858.501,170.833 862.5,175.5C 866.327,180.083 868.66,185.416 869.5,191.5C 870.476,269.488 870.81,347.488 870.5,425.5C 860.167,425.5 849.833,425.5 839.5,425.5C 839.833,356.998 839.499,288.665 838.5,220.5C 837.91,215.831 836.577,211.497 834.5,207.5C 832.3,203.402 828.967,200.735 824.5,199.5C 823.087,198.065 821.42,197.065 819.5,196.5C 819.389,195.883 819.056,195.383 818.5,195C 609.167,194.333 399.833,194.333 190.5,195C 189.263,195.232 188.263,195.732 187.5,196.5C 186.833,197.167 186.167,197.833 185.5,198.5C 181.258,198.955 177.925,200.955 175.5,204.5C 171.563,208.627 169.563,213.627 169.5,219.5C 168.883,219.611 168.383,219.944 168,220.5C 167.5,288.833 167.333,357.166 167.5,425.5C 157.167,425.5 146.833,425.5 136.5,425.5C 136.191,348.821 136.524,272.155 137.5,195.5C 139.347,185.469 144.347,177.302 152.5,171C 156.858,168.25 161.524,166.417 166.5,165.5C 388.146,164.504 609.812,164.171 831.5,164.5 Z"/></g>
<g><path style="opacity:1" fill="#2bbb3f" d="M 1007.5,147.5 C 1011.02,155.746 1013.35,164.412 1014.5,173.5C 1012.92,171.169 1011.75,168.503 1011,165.5C 1009.54,159.572 1008.37,153.572 1007.5,147.5 Z"/></g>
<g><path style="opacity:1" fill="#58cf60" d="M 847.5,166.5 C 847.5,166.167 847.5,165.833 847.5,165.5C 854.271,166.296 859.271,169.63 862.5,175.5C 858.501,170.833 853.501,167.833 847.5,166.5 Z"/></g>
<g><path style="opacity:1" fill="#2bba3f" d="M 8.5,173.5 C 8.66463,176.518 8.49796,179.518 8,182.5C 7.23659,186.459 6.06992,190.126 4.5,193.5C 4.9889,186.543 6.32223,179.876 8.5,173.5 Z"/></g>
<g><path style="opacity:1" fill="#2bba40" d="M 1014.5,173.5 C 1017.78,185.16 1019.78,197.16 1020.5,209.5C 1017.59,197.862 1015.59,185.862 1014.5,173.5 Z"/></g>
<g><path style="opacity:1" fill="#deffe1" d="M 819.5,196.5 C 817.833,196.5 816.167,196.5 814.5,196.5C 605.646,195.17 396.646,195.17 187.5,196.5C 188.263,195.732 189.263,195.232 190.5,195C 399.833,194.333 609.167,194.333 818.5,195C 819.056,195.383 819.389,195.883 819.5,196.5 Z"/></g>
<g><path style="opacity:1" fill="#71df79" d="M 814.5,196.5 C 607.999,196.167 401.666,196.5 195.5,197.5C 192.14,197.616 188.807,197.949 185.5,198.5C 186.167,197.833 186.833,197.167 187.5,196.5C 396.646,195.17 605.646,195.17 814.5,196.5 Z"/></g>
<g><path style="opacity:1" fill="#1dc32e" d="M 195.5,197.5 C 401.666,196.5 607.999,196.167 814.5,196.5C 816.167,196.5 817.833,196.5 819.5,196.5C 821.42,197.065 823.087,198.065 824.5,199.5C 821.544,198.863 818.544,198.363 815.5,198C 608.834,197.5 402.167,197.333 195.5,197.5 Z"/></g>
<g><path style="opacity:1" fill="#27b941" d="M 870.5,193.5 C 871.222,193.918 871.722,194.584 872,195.5C 872.832,272.334 872.666,349.001 871.5,425.5C 871.824,348.138 871.491,270.805 870.5,193.5 Z"/></g>
<g><path style="opacity:1" fill="#28b941" d="M 136.5,197.5 C 135.509,273.471 135.176,349.471 135.5,425.5C 134.334,350.001 134.168,274.334 135,198.5C 135.383,197.944 135.883,197.611 136.5,197.5 Z"/></g>
<g><path style="opacity:1" fill="#d6fedc" d="M 869.5,191.5 C 870.338,191.842 870.672,192.508 870.5,193.5C 871.491,270.805 871.824,348.138 871.5,425.5C 871.5,425.833 871.5,426.167 871.5,426.5C 860.5,426.5 849.5,426.5 838.5,426.5C 838.5,357.833 838.5,289.167 838.5,220.5C 839.499,288.665 839.833,356.998 839.5,425.5C 849.833,425.5 860.167,425.5 870.5,425.5C 870.81,347.488 870.476,269.488 869.5,191.5 Z"/></g>
<g><path style="opacity:1" fill="#c5f7ca" d="M 137.5,195.5 C 136.524,272.155 136.191,348.821 136.5,425.5C 146.833,425.5 157.167,425.5 167.5,425.5C 167.333,357.166 167.5,288.833 168,220.5C 168.383,219.944 168.883,219.611 169.5,219.5C 169.5,288.5 169.5,357.5 169.5,426.5C 158.167,426.5 146.833,426.5 135.5,426.5C 135.5,426.167 135.5,425.833 135.5,425.5C 135.176,349.471 135.509,273.471 136.5,197.5C 136.328,196.508 136.662,195.842 137.5,195.5 Z"/></g>
<g><path style="opacity:1" fill="#27bc3c" d="M 2.5,209.5 C 2.5,219.5 2.5,229.5 2.5,239.5C 1.5,239.5 0.5,239.5 -0.5,239.5C -0.5,239.167 -0.5,238.833 -0.5,238.5C 0.305061,228.816 1.30506,219.15 2.5,209.5 Z"/></g>
<g><path style="opacity:1" fill="#28bc3d" d="M 1020.5,209.5 C 1022.05,219.291 1022.71,229.291 1022.5,239.5C 1020.53,229.889 1019.86,219.889 1020.5,209.5 Z"/></g>
<g><path style="opacity:1" fill="#48c650" d="M 834.5,207.5 C 836.577,211.497 837.91,215.831 838.5,220.5C 838.5,289.167 838.5,357.833 838.5,426.5C 849.5,426.5 860.5,426.5 871.5,426.5C 866.208,427.829 860.542,428.496 854.5,428.5C 848.588,428.49 842.755,428.156 837,427.5C 837.116,354.119 836.283,280.786 834.5,207.5 Z"/></g>
<g><path style="opacity:1" fill="#25be3a" d="M 175.5,204.5 C 173.936,208.107 172.436,211.774 171,215.5C 170.667,286.167 170.333,356.833 170,427.5C 164.245,428.156 158.412,428.49 152.5,428.5C 146.458,428.496 140.792,427.829 135.5,426.5C 146.833,426.5 158.167,426.5 169.5,426.5C 169.5,357.5 169.5,288.5 169.5,219.5C 169.563,213.627 171.563,208.627 175.5,204.5 Z"/></g>
<g><path style="opacity:1" fill="#a4f2ab" d="M 580.5,254.5 C 585.64,253.512 590.974,253.179 596.5,253.5C 597.167,253.5 597.5,253.833 597.5,254.5C 597.5,258.833 597.5,263.167 597.5,267.5C 596.515,263.366 596.182,259.032 596.5,254.5C 591.167,254.5 585.833,254.5 580.5,254.5 Z"/></g>
<g><path style="opacity:1" fill="#cbfcd2" d="M 715.5,253.5 C 715.5,256.833 715.5,260.167 715.5,263.5C 714.523,260.713 714.19,257.713 714.5,254.5C 709.5,254.5 704.5,254.5 699.5,254.5C 699.81,257.713 699.477,260.713 698.5,263.5C 698.5,260.167 698.5,256.833 698.5,253.5C 704.167,253.5 709.833,253.5 715.5,253.5 Z"/></g>
<g><path style="opacity:1" fill="#fdfefd" d="M 715.5,263.5 C 740.328,264.498 765.328,264.831 790.5,264.5C 790.5,269.5 790.5,274.5 790.5,279.5C 734.833,279.5 679.167,279.5 623.5,279.5C 623.5,274.5 623.5,269.5 623.5,264.5C 648.339,264.831 673.006,264.498 697.5,263.5C 697.833,263.5 698.167,263.5 698.5,263.5C 699.477,260.713 699.81,257.713 699.5,254.5C 704.5,254.5 709.5,254.5 714.5,254.5C 714.19,257.713 714.523,260.713 715.5,263.5 Z"/></g>
<g><path style="opacity:1" fill="#fefefe" d="M 288.5,254.5 C 289.167,254.5 289.833,254.5 290.5,254.5C 290.333,271.503 290.5,288.503 291,305.5C 294.057,306.451 297.223,306.784 300.5,306.5C 300.5,311.167 300.5,315.833 300.5,320.5C 297.287,320.19 294.287,320.523 291.5,321.5C 290.502,350.329 290.169,379.329 290.5,408.5C 285.833,408.5 281.167,408.5 276.5,408.5C 276.5,357.5 276.5,306.5 276.5,255.5C 280.702,255.817 284.702,255.483 288.5,254.5 Z"/></g>
<g><path style="opacity:1" fill="#d6ffda" d="M 290.5,254.5 C 290.833,254.5 291.167,254.5 291.5,254.5C 291.5,271.167 291.5,287.833 291.5,304.5C 294.833,304.5 298.167,304.5 301.5,304.5C 301.5,310.167 301.5,315.833 301.5,321.5C 298.167,321.5 294.833,321.5 291.5,321.5C 294.287,320.523 297.287,320.19 300.5,320.5C 300.5,315.833 300.5,311.167 300.5,306.5C 297.223,306.784 294.057,306.451 291,305.5C 290.5,288.503 290.333,271.503 290.5,254.5 Z"/></g>
<g><path style="opacity:1" fill="#4bc955" d="M 291.5,253.5 C 292.497,269.992 292.83,286.658 292.5,303.5C 295.713,303.19 298.713,303.523 301.5,304.5C 298.167,304.5 294.833,304.5 291.5,304.5C 291.5,287.833 291.5,271.167 291.5,254.5C 291.5,254.167 291.5,253.833 291.5,253.5 Z"/></g>
<g><path style="opacity:1" fill="#fcfefc" d="M 580.5,254.5 C 585.833,254.5 591.167,254.5 596.5,254.5C 596.182,259.032 596.515,263.366 597.5,267.5C 598.919,268.451 600.585,268.784 602.5,268.5C 602.5,273.5 602.5,278.5 602.5,283.5C 587.324,283.171 572.324,283.504 557.5,284.5C 556.668,316.664 556.168,348.997 556,381.5C 555.172,385.466 554.672,389.466 554.5,393.5C 553.403,398.27 550.737,401.936 546.5,404.5C 539.416,407.103 532.083,408.436 524.5,408.5C 524.5,403.167 524.5,397.833 524.5,392.5C 529.081,393.077 533.248,392.077 537,389.5C 537.791,388.255 538.291,386.922 538.5,385.5C 539.167,384.833 539.833,384.167 540.5,383.5C 541.167,367.17 541.5,350.67 541.5,334C 541.5,317.153 540.833,300.653 539.5,284.5C 524.676,283.504 509.676,283.171 494.5,283.5C 494.5,278.833 494.5,274.167 494.5,269.5C 509.837,269.667 525.17,269.5 540.5,269C 541.467,264.599 541.8,260.099 541.5,255.5C 546.5,255.5 551.5,255.5 556.5,255.5C 556.183,259.702 556.517,263.702 557.5,267.5C 565.167,267.5 572.833,267.5 580.5,267.5C 580.5,263.167 580.5,258.833 580.5,254.5 Z"/></g>
<g><path style="opacity:1" fill="#e5ffe9" d="M 288.5,254.5 C 284.702,255.483 280.702,255.817 276.5,255.5C 276.5,306.5 276.5,357.5 276.5,408.5C 281.167,408.5 285.833,408.5 290.5,408.5C 290.169,379.329 290.502,350.329 291.5,321.5C 291.5,350.833 291.5,380.167 291.5,409.5C 286.167,409.5 280.833,409.5 275.5,409.5C 275.5,357.833 275.5,306.167 275.5,254.5C 279.833,254.5 284.167,254.5 288.5,254.5 Z"/></g>
<g><path style="opacity:1" fill="#20bf35" d="M 482.5,257.5 C 466.991,257.17 451.658,257.504 436.5,258.5C 435.512,263.64 435.179,268.974 435.5,274.5C 434.175,268.766 434.175,262.932 435.5,257C 451.339,256.172 467.005,256.339 482.5,257.5 Z"/></g>
<g><path style="opacity:1" fill="#c1fac9" d="M 265.5,405.5 C 265.167,405.5 264.833,405.5 264.5,405.5C 259.5,406.833 254.5,406.833 249.5,405.5C 249.5,355.833 249.5,306.167 249.5,256.5C 254.833,256.5 260.167,256.5 265.5,256.5C 265.5,306.167 265.5,355.833 265.5,405.5 Z"/></g>
<g><path style="opacity:1" fill="#28bb3d" d="M 265.5,405.5 C 265.5,355.833 265.5,306.167 265.5,256.5C 260.167,256.5 254.833,256.5 249.5,256.5C 249.5,306.167 249.5,355.833 249.5,405.5C 248.501,355.669 248.168,305.669 248.5,255.5C 254.5,255.5 260.5,255.5 266.5,255.5C 266.832,305.669 266.499,355.669 265.5,405.5 Z"/></g>
<g><path style="opacity:1" fill="#fdfdfd" d="M 263.5,258.5 C 263.5,307.167 263.5,355.833 263.5,404.5C 259.167,404.5 254.833,404.5 250.5,404.5C 250.5,355.5 250.5,306.5 250.5,257.5C 255.032,257.182 259.366,257.515 263.5,258.5 Z"/></g>
<g><path style="opacity:1" fill="#20c038" d="M 291.5,253.5 C 285.833,253.5 280.167,253.5 274.5,253.5C 274.5,305.5 274.5,357.5 274.5,409.5C 273.167,383.842 272.5,357.842 272.5,331.5C 272.667,305.5 272.833,279.5 273,253.5C 279.266,252.174 285.432,252.174 291.5,253.5 Z"/></g>
<g><path style="opacity:1" fill="#cffecf" d="M 436.5,258.5 C 451.833,258.5 467.167,258.5 482.5,258.5C 482.5,264.167 482.5,269.833 482.5,275.5C 477.5,275.5 472.5,275.5 467.5,275.5C 471.97,274.514 476.637,274.181 481.5,274.5C 481.5,269.5 481.5,264.5 481.5,259.5C 466.5,259.5 451.5,259.5 436.5,259.5C 436.5,264.5 436.5,269.5 436.5,274.5C 441.363,274.181 446.03,274.514 450.5,275.5C 445.833,275.5 441.167,275.5 436.5,275.5C 435.833,275.5 435.5,275.167 435.5,274.5C 435.179,268.974 435.512,263.64 436.5,258.5 Z"/></g>
<g><path style="opacity:1" fill="#b5fec1" d="M 291.5,253.5 C 291.5,253.833 291.5,254.167 291.5,254.5C 291.167,254.5 290.833,254.5 290.5,254.5C 289.833,254.5 289.167,254.5 288.5,254.5C 284.167,254.5 279.833,254.5 275.5,254.5C 275.5,306.167 275.5,357.833 275.5,409.5C 275.167,409.5 274.833,409.5 274.5,409.5C 274.5,357.5 274.5,305.5 274.5,253.5C 280.167,253.5 285.833,253.5 291.5,253.5 Z"/></g>
<g><path style="opacity:1" fill="#fbfefb" d="M 467.5,275.5 C 467.5,289.5 467.5,303.5 467.5,317.5C 472.305,318.487 477.305,318.821 482.5,318.5C 482.5,323.5 482.5,328.5 482.5,333.5C 482.5,333.833 482.5,334.167 482.5,334.5C 477.305,334.179 472.305,334.513 467.5,335.5C 466.503,353.326 466.17,371.326 466.5,389.5C 471.5,389.5 476.5,389.5 481.5,389.5C 481.5,394.167 481.5,398.833 481.5,403.5C 466.833,403.5 452.167,403.5 437.5,403.5C 437.5,398.833 437.5,394.167 437.5,389.5C 442.43,389.803 447.263,389.469 452,388.5C 452.167,379.667 452.333,370.833 452.5,362C 452.498,352.807 451.832,343.974 450.5,335.5C 446.03,334.514 441.363,334.181 436.5,334.5C 436.5,329.167 436.5,323.833 436.5,318.5C 441.363,318.819 446.03,318.486 450.5,317.5C 450.5,303.5 450.5,289.5 450.5,275.5C 446.03,274.514 441.363,274.181 436.5,274.5C 436.5,269.5 436.5,264.5 436.5,259.5C 451.5,259.5 466.5,259.5 481.5,259.5C 481.5,264.5 481.5,269.5 481.5,274.5C 476.637,274.181 471.97,274.514 467.5,275.5 Z"/></g>
<g><path style="opacity:1" fill="#4fc855" d="M 339.5,253.5 C 333.642,253.178 327.975,253.511 322.5,254.5C 321.539,256.265 321.205,258.265 321.5,260.5C 316.637,260.181 311.97,260.514 307.5,261.5C 307.5,266.167 307.5,270.833 307.5,275.5C 312.5,275.5 317.5,275.5 322.5,275.5C 322.5,278.167 322.5,280.833 322.5,283.5C 328.167,283.5 333.833,283.5 339.5,283.5C 339.5,280.833 339.5,278.167 339.5,275.5C 354.833,274.167 370.167,274.167 385.5,275.5C 385.5,278.167 385.5,280.833 385.5,283.5C 391.167,283.5 396.833,283.5 402.5,283.5C 402.5,280.833 402.5,278.167 402.5,275.5C 407.5,275.5 412.5,275.5 417.5,275.5C 417.5,270.833 417.5,266.167 417.5,261.5C 412.5,261.5 407.5,261.5 402.5,261.5C 402.5,258.833 402.5,256.167 402.5,253.5C 404.28,254.99 404.946,256.99 404.5,259.5C 409.179,259.334 413.845,259.501 418.5,260C 419.833,265.333 419.833,270.667 418.5,276C 413.845,276.499 409.179,276.666 404.5,276.5C 404.708,278.92 404.374,281.253 403.5,283.5C 408.243,283.877 412.576,284.877 416.5,286.5C 380.5,286.5 344.5,286.5 308.5,286.5C 308.5,290.833 308.5,295.167 308.5,299.5C 323.5,299.5 338.5,299.5 353.5,299.5C 353.5,301.167 353.5,302.833 353.5,304.5C 338.167,304.5 322.833,304.5 307.5,304.5C 322.324,303.504 337.324,303.171 352.5,303.5C 352.5,302.5 352.5,301.5 352.5,300.5C 337.485,300.833 322.485,300.499 307.5,299.5C 306.39,294.889 306.223,290.222 307,285.5C 311.401,284.533 315.901,284.2 320.5,284.5C 320.5,281.833 320.5,279.167 320.5,276.5C 315.57,276.803 310.737,276.469 306,275.5C 305.501,270.177 305.334,264.844 305.5,259.5C 310.5,259.5 315.5,259.5 320.5,259.5C 320.244,257.208 320.577,255.041 321.5,253C 327.681,252.181 333.681,252.347 339.5,253.5 Z"/></g>
<g><path style="opacity:1" fill="#63d36c" d="M 385.5,253.5 C 385.5,256.167 385.5,258.833 385.5,261.5C 370.167,261.5 354.833,261.5 339.5,261.5C 339.5,261.167 339.5,260.833 339.5,260.5C 354.5,260.5 369.5,260.5 384.5,260.5C 384.198,257.941 384.532,255.607 385.5,253.5 Z"/></g>
<g><path style="opacity:1" fill="#6fd575" d="M 322.5,254.5 C 322.5,256.5 322.5,258.5 322.5,260.5C 322.5,261.167 322.167,261.5 321.5,261.5C 316.833,261.5 312.167,261.5 307.5,261.5C 311.97,260.514 316.637,260.181 321.5,260.5C 321.205,258.265 321.539,256.265 322.5,254.5 Z"/></g>
<g><path style="opacity:1" fill="#fcfefc" d="M 339.5,261.5 C 354.833,261.5 370.167,261.5 385.5,261.5C 386.468,259.393 386.802,257.059 386.5,254.5C 391.5,254.5 396.5,254.5 401.5,254.5C 401.5,257.167 401.5,259.833 401.5,262.5C 406.5,262.5 411.5,262.5 416.5,262.5C 416.5,266.5 416.5,270.5 416.5,274.5C 411.637,274.181 406.97,274.514 402.5,275.5C 401.532,277.607 401.198,279.941 401.5,282.5C 396.5,282.5 391.5,282.5 386.5,282.5C 386.802,279.941 386.468,277.607 385.5,275.5C 370.167,274.167 354.833,274.167 339.5,275.5C 338.532,277.607 338.198,279.941 338.5,282.5C 333.5,282.5 328.5,282.5 323.5,282.5C 323.5,279.833 323.5,277.167 323.5,274.5C 318.5,274.5 313.5,274.5 308.5,274.5C 308.5,270.5 308.5,266.5 308.5,262.5C 313.032,262.818 317.366,262.485 321.5,261.5C 322.167,261.5 322.5,261.167 322.5,260.5C 323.461,258.735 323.795,256.735 323.5,254.5C 328.5,254.5 333.5,254.5 338.5,254.5C 338.198,257.059 338.532,259.393 339.5,261.5 Z"/></g>
<g><path style="opacity:1" fill="#c9fed0" d="M 339.5,253.5 C 339.5,255.833 339.5,258.167 339.5,260.5C 339.5,260.833 339.5,261.167 339.5,261.5C 338.532,259.393 338.198,257.059 338.5,254.5C 333.5,254.5 328.5,254.5 323.5,254.5C 323.795,256.735 323.461,258.735 322.5,260.5C 322.5,258.5 322.5,256.5 322.5,254.5C 327.975,253.511 333.642,253.178 339.5,253.5 Z"/></g>
<g><path style="opacity:1" fill="#40c14e" d="M 715.5,253.5 C 709.833,253.5 704.167,253.5 698.5,253.5C 698.5,256.833 698.5,260.167 698.5,263.5C 698.167,263.5 697.833,263.5 697.5,263.5C 672.5,263.5 647.5,263.5 622.5,263.5C 622.5,269.167 622.5,274.833 622.5,280.5C 622.167,280.5 621.833,280.5 621.5,280.5C 621.5,274.5 621.5,268.5 621.5,262.5C 646.5,262.5 671.5,262.5 696.5,262.5C 696.216,259.223 696.549,256.057 697.5,253C 703.681,252.181 709.681,252.347 715.5,253.5 Z"/></g>
<g><path style="opacity:1" fill="#27b93f" d="M 715.5,253.5 C 716.477,256.287 716.81,259.287 716.5,262.5C 741.672,262.169 766.672,262.502 791.5,263.5C 766.167,263.5 740.833,263.5 715.5,263.5C 715.5,260.167 715.5,256.833 715.5,253.5 Z"/></g>
<g><path style="opacity:1" fill="#3dc249" d="M 596.5,253.5 C 590.974,253.179 585.64,253.512 580.5,254.5C 580.5,258.833 580.5,263.167 580.5,267.5C 572.833,267.5 565.167,267.5 557.5,267.5C 557.5,263.167 557.5,258.833 557.5,254.5C 551.833,254.5 546.167,254.5 540.5,254.5C 540.818,259.032 540.485,263.366 539.5,267.5C 523.833,267.5 508.167,267.5 492.5,267.5C 492.5,273.5 492.5,279.5 492.5,285.5C 508.167,285.5 523.833,285.5 539.5,285.5C 540.498,317.996 540.832,350.662 540.5,383.5C 539.833,384.167 539.167,384.833 538.5,385.5C 538.5,352.5 538.5,319.5 538.5,286.5C 522.819,286.833 507.152,286.499 491.5,285.5C 490.183,279.303 490.183,273.136 491.5,267C 507.163,266.5 522.83,266.333 538.5,266.5C 538.2,261.901 538.533,257.401 539.5,253C 545.825,252.5 552.158,252.334 558.5,252.5C 558.5,257.167 558.5,261.833 558.5,266.5C 565.167,266.5 571.833,266.5 578.5,266.5C 578.2,261.901 578.533,257.401 579.5,253C 585.349,252.182 591.015,252.348 596.5,253.5 Z"/></g>
<g><path style="opacity:1" fill="#b2f8ba" d="M 539.5,267.5 C 524.342,268.496 509.009,268.83 493.5,268.5C 493.5,273.833 493.5,279.167 493.5,284.5C 508.833,284.5 524.167,284.5 539.5,284.5C 539.5,284.833 539.5,285.167 539.5,285.5C 523.833,285.5 508.167,285.5 492.5,285.5C 492.5,279.5 492.5,273.5 492.5,267.5C 508.167,267.5 523.833,267.5 539.5,267.5 Z"/></g>
<g><path style="opacity:1" fill="#cefdd3" d="M 385.5,253.5 C 391.167,253.5 396.833,253.5 402.5,253.5C 402.5,256.167 402.5,258.833 402.5,261.5C 407.5,261.5 412.5,261.5 417.5,261.5C 417.5,266.167 417.5,270.833 417.5,275.5C 412.5,275.5 407.5,275.5 402.5,275.5C 406.97,274.514 411.637,274.181 416.5,274.5C 416.5,270.5 416.5,266.5 416.5,262.5C 411.5,262.5 406.5,262.5 401.5,262.5C 401.5,259.833 401.5,257.167 401.5,254.5C 396.5,254.5 391.5,254.5 386.5,254.5C 386.802,257.059 386.468,259.393 385.5,261.5C 385.5,258.833 385.5,256.167 385.5,253.5 Z"/></g>
<g><path style="opacity:1" fill="#edffec" d="M 557.5,267.5 C 556.517,263.702 556.183,259.702 556.5,255.5C 551.5,255.5 546.5,255.5 541.5,255.5C 541.8,260.099 541.467,264.599 540.5,269C 525.17,269.5 509.837,269.667 494.5,269.5C 494.5,274.167 494.5,278.833 494.5,283.5C 509.676,283.171 524.676,283.504 539.5,284.5C 524.167,284.5 508.833,284.5 493.5,284.5C 493.5,279.167 493.5,273.833 493.5,268.5C 509.009,268.83 524.342,268.496 539.5,267.5C 540.485,263.366 540.818,259.032 540.5,254.5C 546.167,254.5 551.833,254.5 557.5,254.5C 557.5,258.833 557.5,263.167 557.5,267.5 Z"/></g>
<g><path style="opacity:1" fill="#a9feb4" d="M 597.5,267.5 C 599.833,267.5 602.167,267.5 604.5,267.5C 604.822,273.358 604.489,279.025 603.5,284.5C 603.821,278.974 603.488,273.64 602.5,268.5C 600.585,268.784 598.919,268.451 597.5,267.5 Z"/></g>
<g><path style="opacity:1" fill="#ebffea" d="M 263.5,258.5 C 264.499,307.33 264.832,356.33 264.5,405.5C 259.637,405.819 254.97,405.486 250.5,404.5C 254.833,404.5 259.167,404.5 263.5,404.5C 263.5,355.833 263.5,307.167 263.5,258.5 Z"/></g>
<g><path style="opacity:1" fill="#02d125" d="M 339.5,283.5 C 340.468,281.393 340.802,279.059 340.5,276.5C 355.167,276.5 369.833,276.5 384.5,276.5C 384.5,279.167 384.5,281.833 384.5,284.5C 369.324,284.829 354.324,284.496 339.5,283.5 Z"/></g>
<g><path style="opacity:1" fill="#dbffdc" d="M 697.5,263.5 C 673.006,264.498 648.339,264.831 623.5,264.5C 623.5,269.5 623.5,274.5 623.5,279.5C 679.167,279.5 734.833,279.5 790.5,279.5C 790.5,274.5 790.5,269.5 790.5,264.5C 765.328,264.831 740.328,264.498 715.5,263.5C 740.833,263.5 766.167,263.5 791.5,263.5C 791.5,269.167 791.5,274.833 791.5,280.5C 735.167,280.5 678.833,280.5 622.5,280.5C 622.5,274.833 622.5,269.167 622.5,263.5C 647.5,263.5 672.5,263.5 697.5,263.5 Z"/></g>
<g><path style="opacity:1" fill="#d2fdd4" d="M 307.5,261.5 C 312.167,261.5 316.833,261.5 321.5,261.5C 317.366,262.485 313.032,262.818 308.5,262.5C 308.5,266.5 308.5,270.5 308.5,274.5C 313.5,274.5 318.5,274.5 323.5,274.5C 323.5,277.167 323.5,279.833 323.5,282.5C 328.5,282.5 333.5,282.5 338.5,282.5C 338.198,279.941 338.532,277.607 339.5,275.5C 339.5,278.167 339.5,280.833 339.5,283.5C 333.833,283.5 328.167,283.5 322.5,283.5C 322.5,280.833 322.5,278.167 322.5,275.5C 317.5,275.5 312.5,275.5 307.5,275.5C 307.5,270.833 307.5,266.167 307.5,261.5 Z"/></g>
<g><path style="opacity:1" fill="#4ac751" d="M 621.5,280.5 C 621.833,280.5 622.167,280.5 622.5,280.5C 678.833,280.5 735.167,280.5 791.5,280.5C 791.389,281.117 791.056,281.617 790.5,282C 762.333,282.167 734.167,282.333 706,282.5C 677.492,282.5 649.325,281.833 621.5,280.5 Z"/></g>
<g><path style="opacity:1" fill="#d8ffdd" d="M 385.5,275.5 C 386.468,277.607 386.802,279.941 386.5,282.5C 391.5,282.5 396.5,282.5 401.5,282.5C 401.198,279.941 401.532,277.607 402.5,275.5C 402.5,278.167 402.5,280.833 402.5,283.5C 396.833,283.5 391.167,283.5 385.5,283.5C 385.5,280.833 385.5,278.167 385.5,275.5 Z"/></g>
<g><path style="opacity:1" fill="#e9ffe7" d="M 602.5,268.5 C 603.488,273.64 603.821,278.974 603.5,284.5C 588.167,284.5 572.833,284.5 557.5,284.5C 572.324,283.504 587.324,283.171 602.5,283.5C 602.5,278.5 602.5,273.5 602.5,268.5 Z"/></g>
<g><path style="opacity:1" fill="#42c04e" d="M 436.5,258.5 C 451.658,257.504 466.991,257.17 482.5,257.5C 484.456,263.412 485.123,269.745 484.5,276.5C 479.167,276.5 473.833,276.5 468.5,276.5C 468.5,289.833 468.5,303.167 468.5,316.5C 473.363,316.181 478.03,316.514 482.5,317.5C 477.5,317.5 472.5,317.5 467.5,317.5C 467.5,303.5 467.5,289.5 467.5,275.5C 472.5,275.5 477.5,275.5 482.5,275.5C 482.5,269.833 482.5,264.167 482.5,258.5C 467.167,258.5 451.833,258.5 436.5,258.5 Z"/></g>
<g><path style="opacity:1" fill="#2cb643" d="M 436.5,275.5 C 441.167,275.5 445.833,275.5 450.5,275.5C 450.5,289.5 450.5,303.5 450.5,317.5C 445.5,317.5 440.5,317.5 435.5,317.5C 439.97,316.514 444.637,316.181 449.5,316.5C 449.5,303.167 449.5,289.833 449.5,276.5C 444.968,276.818 440.634,276.485 436.5,275.5 Z"/></g>
<g><path style="opacity:1" fill="#defed8" d="M 539.5,285.5 C 539.5,285.167 539.5,284.833 539.5,284.5C 540.833,300.653 541.5,317.153 541.5,334C 541.5,350.67 541.167,367.17 540.5,383.5C 540.832,350.662 540.498,317.996 539.5,285.5 Z"/></g>
<g><path style="opacity:1" fill="#39c048" d="M 597.5,254.5 C 598.483,258.298 598.817,262.298 598.5,266.5C 601.119,266.232 603.619,266.565 606,267.5C 606.809,273.749 606.642,279.916 605.5,286C 589.837,286.5 574.17,286.667 558.5,286.5C 558.667,321.168 558.5,355.835 558,390.5C 557.292,391.381 556.458,392.047 555.5,392.5C 555.231,390.571 555.731,388.905 557,387.5C 557.5,353.502 557.667,319.502 557.5,285.5C 573.009,285.83 588.342,285.496 603.5,284.5C 604.489,279.025 604.822,273.358 604.5,267.5C 602.167,267.5 599.833,267.5 597.5,267.5C 597.5,263.167 597.5,258.833 597.5,254.5 Z"/></g>
<g><path style="opacity:1" fill="#9dfdaa" d="M 647.5,286.5 C 653.026,286.179 658.36,286.512 663.5,287.5C 658.167,287.5 652.833,287.5 647.5,287.5C 647.821,293.026 647.488,298.36 646.5,303.5C 646.178,297.642 646.511,291.975 647.5,286.5 Z"/></g>
<g><path style="opacity:1" fill="#ccf9d0" d="M 557.5,284.5 C 572.833,284.5 588.167,284.5 603.5,284.5C 588.342,285.496 573.009,285.83 557.5,285.5C 557.667,319.502 557.5,353.502 557,387.5C 555.731,388.905 555.231,390.571 555.5,392.5C 555.5,393.167 555.167,393.5 554.5,393.5C 554.672,389.466 555.172,385.466 556,381.5C 556.168,348.997 556.668,316.664 557.5,284.5 Z"/></g>
<g><path style="opacity:1" fill="#d2fed0" d="M 416.5,286.5 C 416.5,290.833 416.5,295.167 416.5,299.5C 401.5,299.5 386.5,299.5 371.5,299.5C 385.99,298.504 400.657,298.171 415.5,298.5C 415.5,294.833 415.5,291.167 415.5,287.5C 380.167,287.5 344.833,287.5 309.5,287.5C 309.5,291.167 309.5,294.833 309.5,298.5C 324.343,298.171 339.01,298.504 353.5,299.5C 338.5,299.5 323.5,299.5 308.5,299.5C 308.5,295.167 308.5,290.833 308.5,286.5C 344.5,286.5 380.5,286.5 416.5,286.5 Z"/></g>
<g><path style="opacity:1" fill="#fcfefc" d="M 371.5,299.5 C 370.28,301.05 370.28,302.716 371.5,304.5C 386.324,305.496 401.324,305.829 416.5,305.5C 416.5,309.167 416.5,312.833 416.5,316.5C 400.991,316.17 385.658,316.504 370.5,317.5C 370.5,319.5 370.5,321.5 370.5,323.5C 381.659,324.331 392.993,324.831 404.5,325C 406.025,326.009 407.692,326.509 409.5,326.5C 411.411,327.075 413.078,328.075 414.5,329.5C 416.777,340.053 417.111,350.719 415.5,361.5C 413.786,364.213 411.453,366.213 408.5,367.5C 407.167,367.833 405.833,368.167 404.5,368.5C 392.988,368.172 381.654,368.505 370.5,369.5C 369.183,372.23 369.183,375.063 370.5,378C 385.496,378.5 400.496,378.667 415.5,378.5C 415.5,381.833 415.5,385.167 415.5,388.5C 400.324,388.171 385.324,388.504 370.5,389.5C 370.5,391.5 370.5,393.5 370.5,395.5C 385.464,397.484 400.797,398.151 416.5,397.5C 416.5,400.833 416.5,404.167 416.5,407.5C 380.5,407.5 344.5,407.5 308.5,407.5C 308.5,404.167 308.5,400.833 308.5,397.5C 323.676,397.829 338.676,397.496 353.5,396.5C 353.5,396.167 353.5,395.833 353.5,395.5C 354.833,393.5 354.833,391.5 353.5,389.5C 339.01,388.504 324.343,388.171 309.5,388.5C 309.5,385.167 309.5,381.833 309.5,378.5C 324.504,378.667 339.504,378.5 354.5,378C 355.451,374.943 355.784,371.777 355.5,368.5C 342.833,368.5 330.167,368.5 317.5,368.5C 313.936,367.936 311.603,365.936 310.5,362.5C 309.195,351.838 309.195,341.171 310.5,330.5C 310.833,328.167 312.167,326.833 314.5,326.5C 327.499,325.007 340.499,324.007 353.5,323.5C 354.833,321.5 354.833,319.5 353.5,317.5C 338.676,316.504 323.676,316.171 308.5,316.5C 308.5,312.833 308.5,309.167 308.5,305.5C 323.676,305.829 338.676,305.496 353.5,304.5C 353.5,302.833 353.5,301.167 353.5,299.5C 339.01,298.504 324.343,298.171 309.5,298.5C 309.5,294.833 309.5,291.167 309.5,287.5C 344.833,287.5 380.167,287.5 415.5,287.5C 415.5,291.167 415.5,294.833 415.5,298.5C 400.657,298.171 385.99,298.504 371.5,299.5 Z"/></g>
<g><path style="opacity:1" fill="#fbfefb" d="M 663.5,287.5 C 663.5,292.833 663.5,298.167 663.5,303.5C 691.833,303.5 720.167,303.5 748.5,303.5C 748.5,298.167 748.5,292.833 748.5,287.5C 753.833,287.5 759.167,287.5 764.5,287.5C 764.179,293.026 764.512,298.36 765.5,303.5C 770.511,303.334 775.511,303.501 780.5,304C 783.229,304.566 785.229,306.066 786.5,308.5C 790.052,317.41 791.386,326.743 790.5,336.5C 785.5,336.5 780.5,336.5 775.5,336.5C 775.815,332.629 775.482,328.962 774.5,325.5C 774.573,323.973 773.906,322.973 772.5,322.5C 772.082,321.778 771.416,321.278 770.5,321C 727.5,320.333 684.5,320.333 641.5,321C 640.177,321.816 639.511,322.983 639.5,324.5C 638.883,324.611 638.383,324.944 638,325.5C 637.501,329.152 637.335,332.818 637.5,336.5C 632.833,336.5 628.167,336.5 623.5,336.5C 623.334,329.159 623.5,321.826 624,314.5C 626.039,313.022 626.872,311.022 626.5,308.5C 628.094,307.017 629.76,305.517 631.5,304C 636.489,303.501 641.489,303.334 646.5,303.5C 647.488,298.36 647.821,293.026 647.5,287.5C 652.833,287.5 658.167,287.5 663.5,287.5 Z"/></g>
<g><path style="opacity:1" fill="#b1feba" d="M 748.5,287.5 C 753.975,286.511 759.642,286.178 765.5,286.5C 765.5,292.167 765.5,297.833 765.5,303.5C 764.512,298.36 764.179,293.026 764.5,287.5C 759.167,287.5 753.833,287.5 748.5,287.5 Z"/></g>
<g><path style="opacity:1" fill="#4fc157" d="M 416.5,286.5 C 417.486,290.97 417.819,295.637 417.5,300.5C 402.5,300.5 387.5,300.5 372.5,300.5C 372.5,301.5 372.5,302.5 372.5,303.5C 387.5,303.5 402.5,303.5 417.5,303.5C 417.5,303.833 417.5,304.167 417.5,304.5C 402.167,304.5 386.833,304.5 371.5,304.5C 370.28,302.716 370.28,301.05 371.5,299.5C 386.5,299.5 401.5,299.5 416.5,299.5C 416.5,295.167 416.5,290.833 416.5,286.5 Z"/></g>
<g><path style="opacity:1" fill="#47c34f" d="M 526.5,319.5 C 526.5,313.833 526.5,308.167 526.5,302.5C 515.833,302.5 505.167,302.5 494.5,302.5C 494.5,308.167 494.5,313.833 494.5,319.5C 493.184,316.913 492.517,313.913 492.5,310.5C 492.521,307.248 492.854,304.081 493.5,301C 504.828,300.5 516.162,300.333 527.5,300.5C 527.823,307.022 527.49,313.355 526.5,319.5 Z"/></g>
<g><path style="opacity:1" fill="#38ca41" d="M 647.5,286.5 C 653.31,285.51 659.31,285.177 665.5,285.5C 665.5,290.833 665.5,296.167 665.5,301.5C 692.5,301.5 719.5,301.5 746.5,301.5C 745.897,296.381 746.564,291.715 748.5,287.5C 748.5,292.833 748.5,298.167 748.5,303.5C 720.167,303.5 691.833,303.5 663.5,303.5C 663.5,298.167 663.5,292.833 663.5,287.5C 658.36,286.512 653.026,286.179 647.5,286.5 Z"/></g>
<g><path style="opacity:1" fill="#cbfdce" d="M 307.5,304.5 C 322.833,304.5 338.167,304.5 353.5,304.5C 338.676,305.496 323.676,305.829 308.5,305.5C 308.5,309.167 308.5,312.833 308.5,316.5C 323.676,316.171 338.676,316.504 353.5,317.5C 338.167,317.5 322.833,317.5 307.5,317.5C 306.167,313.167 306.167,308.833 307.5,304.5 Z"/></g>
<g><path style="opacity:1" fill="#d2ffd7" d="M 371.5,304.5 C 386.833,304.5 402.167,304.5 417.5,304.5C 417.5,308.833 417.5,313.167 417.5,317.5C 401.833,317.5 386.167,317.5 370.5,317.5C 385.658,316.504 400.991,316.17 416.5,316.5C 416.5,312.833 416.5,309.167 416.5,305.5C 401.324,305.829 386.324,305.496 371.5,304.5 Z"/></g>
<g><path style="opacity:1" fill="#39c048" d="M 417.5,303.5 C 419.442,308.056 420.108,313.056 419.5,318.5C 403.833,318.5 388.167,318.5 372.5,318.5C 372.5,319.833 372.5,321.167 372.5,322.5C 383.838,322.333 395.172,322.5 406.5,323C 407.056,323.383 407.389,323.883 407.5,324.5C 395.217,323.54 382.883,323.206 370.5,323.5C 370.5,321.5 370.5,319.5 370.5,317.5C 386.167,317.5 401.833,317.5 417.5,317.5C 417.5,313.167 417.5,308.833 417.5,304.5C 417.5,304.167 417.5,303.833 417.5,303.5 Z"/></g>
<g><path style="opacity:1" fill="#cffbd0" d="M 526.5,319.5 C 515.833,319.5 505.167,319.5 494.5,319.5C 494.5,313.833 494.5,308.167 494.5,302.5C 505.167,302.5 515.833,302.5 526.5,302.5C 526.5,308.167 526.5,313.833 526.5,319.5 Z"/></g>
<g><path style="opacity:1" fill="#fcfefb" d="M 495.5,303.5 C 505.5,303.5 515.5,303.5 525.5,303.5C 525.5,308.5 525.5,313.5 525.5,318.5C 515.5,318.5 505.5,318.5 495.5,318.5C 495.5,313.5 495.5,308.5 495.5,303.5 Z"/></g>
<g><path style="opacity:1" fill="#32c73f" d="M 570.5,300.5 C 581.505,300.333 592.505,300.5 603.5,301C 604.642,307.084 604.809,313.251 604,319.5C 603.5,320 603,320.5 602.5,321C 591.833,321.667 581.167,321.667 570.5,321C 569.184,314.167 569.184,307.334 570.5,300.5 Z"/></g>
<g><path style="opacity:1" fill="#cbfbcd" d="M 570.5,302.5 C 581.167,302.5 591.833,302.5 602.5,302.5C 602.5,308.167 602.5,313.833 602.5,319.5C 591.833,319.5 581.167,319.5 570.5,319.5C 570.5,313.833 570.5,308.167 570.5,302.5 Z"/></g>
<g><path style="opacity:1" fill="#fbfefb" d="M 571.5,303.5 C 581.5,303.5 591.5,303.5 601.5,303.5C 601.5,308.5 601.5,313.5 601.5,318.5C 591.5,318.5 581.5,318.5 571.5,318.5C 571.5,313.5 571.5,308.5 571.5,303.5 Z"/></g>
<g><path style="opacity:1" fill="#a9f1af" d="M 435.5,317.5 C 440.5,317.5 445.5,317.5 450.5,317.5C 446.03,318.486 441.363,318.819 436.5,318.5C 436.5,323.833 436.5,329.167 436.5,334.5C 441.363,334.181 446.03,334.514 450.5,335.5C 450.167,335.5 449.833,335.5 449.5,335.5C 444.833,335.5 440.167,335.5 435.5,335.5C 435.5,329.5 435.5,323.5 435.5,317.5 Z"/></g>
<g><path style="opacity:1" fill="#3cc247" d="M 772.5,322.5 C 728.016,321.856 683.683,322.523 639.5,324.5C 639.511,322.983 640.177,321.816 641.5,321C 684.5,320.333 727.5,320.333 770.5,321C 771.416,321.278 772.082,321.778 772.5,322.5 Z"/></g>
<g><path style="opacity:1" fill="#cdfed4" d="M 786.5,308.5 C 787.458,308.953 788.292,309.619 789,310.5C 791.271,319.672 792.105,329.006 791.5,338.5C 785.833,338.5 780.167,338.5 774.5,338.5C 774.5,334.167 774.5,329.833 774.5,325.5C 775.482,328.962 775.815,332.629 775.5,336.5C 780.5,336.5 785.5,336.5 790.5,336.5C 791.386,326.743 790.052,317.41 786.5,308.5 Z"/></g>
<g><path style="opacity:1" fill="#4fc75a" d="M 307.5,317.5 C 322.833,317.5 338.167,317.5 353.5,317.5C 354.833,319.5 354.833,321.5 353.5,323.5C 341.129,323.227 328.796,323.56 316.5,324.5C 316.611,323.883 316.944,323.383 317.5,323C 329.162,322.5 340.829,322.333 352.5,322.5C 352.5,321.167 352.5,319.833 352.5,318.5C 337.324,318.829 322.324,318.496 307.5,317.5 Z"/></g>
<g><path style="opacity:1" fill="#dbfedd" d="M 353.5,323.5 C 340.499,324.007 327.499,325.007 314.5,326.5C 315.167,325.833 315.833,325.167 316.5,324.5C 328.796,323.56 341.129,323.227 353.5,323.5 Z"/></g>
<g><path style="opacity:1" fill="#d7fedc" d="M 370.5,323.5 C 382.883,323.206 395.217,323.54 407.5,324.5C 408.167,325.167 408.833,325.833 409.5,326.5C 407.692,326.509 406.025,326.009 404.5,325C 392.993,324.831 381.659,324.331 370.5,323.5 Z"/></g>
<g><path style="opacity:1" fill="#4ecd58" d="M 291.5,321.5 C 294.833,321.5 298.167,321.5 301.5,321.5C 298.713,322.477 295.713,322.81 292.5,322.5C 292.831,351.671 292.498,380.671 291.5,409.5C 291.5,380.167 291.5,350.833 291.5,321.5 Z"/></g>
<g><path style="opacity:1" fill="#9ceda3" d="M 467.5,317.5 C 472.5,317.5 477.5,317.5 482.5,317.5C 483.833,322.833 483.833,328.167 482.5,333.5C 482.5,328.5 482.5,323.5 482.5,318.5C 477.305,318.821 472.305,318.487 467.5,317.5 Z"/></g>
<g><path style="opacity:1" fill="#fcfefc" d="M 698.5,329.5 C 703.833,329.5 709.167,329.5 714.5,329.5C 714.5,333.833 714.5,338.167 714.5,342.5C 733.503,342.333 752.503,342.5 771.5,343C 774.186,344.168 776.853,345.335 779.5,346.5C 780.167,346.833 780.833,347.167 781.5,347.5C 782.931,349.189 783.764,351.189 784,353.5C 784.667,365.833 784.667,378.167 784,390.5C 782.894,398.441 778.394,402.774 770.5,403.5C 765.5,403.5 760.5,403.5 755.5,403.5C 755.5,398.167 755.5,392.833 755.5,387.5C 758.877,387.932 761.877,387.265 764.5,385.5C 765.458,385.047 766.292,384.381 767,383.5C 767.667,376.167 767.667,368.833 767,361.5C 766.283,360.956 765.783,360.289 765.5,359.5C 765.027,358.094 764.027,357.427 762.5,357.5C 746.431,356.17 730.264,356.17 714,357.5C 713.5,374.497 713.333,391.497 713.5,408.5C 708.833,408.5 704.167,408.5 699.5,408.5C 700.152,391.134 699.486,374.134 697.5,357.5C 681.497,357.333 665.497,357.5 649.5,358C 648.944,358.383 648.611,358.883 648.5,359.5C 647.5,359.833 646.833,360.5 646.5,361.5C 644.518,374.792 643.851,388.459 644.5,402.5C 639.833,402.5 635.167,402.5 630.5,402.5C 630.222,384.806 630.555,367.139 631.5,349.5C 631.5,348.833 631.833,348.5 632.5,348.5C 634.757,346.077 637.424,344.243 640.5,343C 659.671,342.832 678.671,342.332 697.5,341.5C 698.483,337.702 698.817,333.702 698.5,329.5 Z"/></g>
<g><path style="opacity:1" fill="#c9f4cc" d="M 353.5,335.5 C 344.167,335.5 334.833,335.5 325.5,335.5C 323.787,336.635 323.12,338.302 323.5,340.5C 322.193,338.777 322.193,336.943 323.5,335C 333.675,334.175 343.675,334.342 353.5,335.5 Z"/></g>
<g><path style="opacity:1" fill="#c4f3c3" d="M 310.5,330.5 C 309.195,341.171 309.195,351.838 310.5,362.5C 309.768,361.192 308.934,359.858 308,358.5C 307.333,350.5 307.333,342.5 308,334.5C 308.608,332.934 309.442,331.6 310.5,330.5 Z"/></g>
<g><path style="opacity:1" fill="#25bf3b" d="M 414.5,329.5 C 415.5,329.5 416.5,329.5 417.5,329.5C 418.591,339.466 418.758,349.466 418,359.5C 417.583,360.756 416.75,361.423 415.5,361.5C 417.111,350.719 416.777,340.053 414.5,329.5 Z"/></g>
<g><path style="opacity:1" fill="#d0f8d0" d="M 626.5,308.5 C 626.872,311.022 626.039,313.022 624,314.5C 623.5,321.826 623.334,329.159 623.5,336.5C 628.167,336.5 632.833,336.5 637.5,336.5C 637.335,332.818 637.501,329.152 638,325.5C 638.383,324.944 638.883,324.611 639.5,324.5C 639.5,325.167 639.5,325.833 639.5,326.5C 638.518,329.962 638.185,333.629 638.5,337.5C 633.167,337.5 627.833,337.5 622.5,337.5C 621.345,330.345 621.178,323.012 622,315.5C 622.687,312.543 624.187,310.209 626.5,308.5 Z"/></g>
<g><path style="opacity:1" fill="#9df3a4" d="M 639.5,326.5 C 639.5,330.5 639.5,334.5 639.5,338.5C 633.642,338.822 627.975,338.489 622.5,337.5C 627.833,337.5 633.167,337.5 638.5,337.5C 638.185,333.629 638.518,329.962 639.5,326.5 Z"/></g>
<g><path style="opacity:1" fill="#16c72c" d="M 397.5,335.5 C 399.027,335.427 400.027,336.094 400.5,337.5C 400.5,338.5 400.5,339.5 400.5,340.5C 390.833,340.5 381.167,340.5 371.5,340.5C 371.5,338.833 371.5,337.167 371.5,335.5C 380.167,335.5 388.833,335.5 397.5,335.5 Z"/></g>
<g><path style="opacity:1" fill="#77db7e" d="M 325.5,335.5 C 324.962,337.117 324.629,338.784 324.5,340.5C 334.167,340.5 343.833,340.5 353.5,340.5C 353.5,338.833 353.5,337.167 353.5,335.5C 354.461,337.265 354.795,339.265 354.5,341.5C 343.986,341.828 333.653,341.494 323.5,340.5C 323.12,338.302 323.787,336.635 325.5,335.5 Z"/></g>
<g><path style="opacity:1" fill="#15c72c" d="M 325.5,335.5 C 334.833,335.5 344.167,335.5 353.5,335.5C 353.5,337.167 353.5,338.833 353.5,340.5C 343.833,340.5 334.167,340.5 324.5,340.5C 324.629,338.784 324.962,337.117 325.5,335.5 Z"/></g>
<g><path style="opacity:1" fill="#74dd7b" d="M 400.5,337.5 C 401.434,338.568 401.768,339.901 401.5,341.5C 391.319,341.827 381.319,341.494 371.5,340.5C 381.167,340.5 390.833,340.5 400.5,340.5C 400.5,339.5 400.5,338.5 400.5,337.5 Z"/></g>
<g><path style="opacity:1" fill="#b7fcc1" d="M 570.5,340.5 C 576.5,340.5 582.5,340.5 588.5,340.5C 588.5,343.167 588.5,345.833 588.5,348.5C 587.532,346.393 587.198,344.059 587.5,341.5C 582.167,341.5 576.833,341.5 571.5,341.5C 571.5,343.167 571.5,344.833 571.5,346.5C 570.539,344.735 570.205,342.735 570.5,340.5 Z"/></g>
<g><path style="opacity:1" fill="#55cc5e" d="M 698.5,328.5 C 698.5,328.833 698.5,329.167 698.5,329.5C 698.817,333.702 698.483,337.702 697.5,341.5C 678.167,341.5 658.833,341.5 639.5,341.5C 658.659,340.503 677.993,340.17 697.5,340.5C 697.183,336.298 697.517,332.298 698.5,328.5 Z"/></g>
<g><path style="opacity:1" fill="#4cc956" d="M 715.5,329.5 C 716.482,332.962 716.815,336.629 716.5,340.5C 735.836,340.333 755.17,340.5 774.5,341C 777.983,341.985 780.316,344.151 781.5,347.5C 780.833,347.167 780.167,346.833 779.5,346.5C 778.014,344.381 776.014,342.881 773.5,342C 754.17,341.5 734.836,341.333 715.5,341.5C 715.5,337.5 715.5,333.5 715.5,329.5 Z"/></g>
<g><path style="opacity:1" fill="#dafbdc" d="M 397.5,335.5 C 388.833,335.5 380.167,335.5 371.5,335.5C 371.5,337.167 371.5,338.833 371.5,340.5C 381.319,341.494 391.319,341.827 401.5,341.5C 391.098,342.829 380.598,342.829 370,341.5C 369.289,339.101 369.456,336.768 370.5,334.5C 375,334.167 379.5,333.833 384,333.5C 388.886,333.507 393.386,334.174 397.5,335.5 Z"/></g>
<g><path style="opacity:1" fill="#d9fedc" d="M 639.5,341.5 C 658.833,341.5 678.167,341.5 697.5,341.5C 678.671,342.332 659.671,342.832 640.5,343C 637.424,344.243 634.757,346.077 632.5,348.5C 633.865,345.135 636.199,342.801 639.5,341.5 Z"/></g>
<g><path style="opacity:1" fill="#d5fed9" d="M 698.5,329.5 C 698.5,329.167 698.5,328.833 698.5,328.5C 704.358,328.178 710.025,328.511 715.5,329.5C 715.5,333.5 715.5,337.5 715.5,341.5C 734.836,341.333 754.17,341.5 773.5,342C 776.014,342.881 778.014,344.381 779.5,346.5C 776.853,345.335 774.186,344.168 771.5,343C 752.503,342.5 733.503,342.333 714.5,342.5C 714.5,338.167 714.5,333.833 714.5,329.5C 709.167,329.5 703.833,329.5 698.5,329.5 Z"/></g>
<g><path style="opacity:1" fill="#fbfefb" d="M 519.5,371.5 C 519.437,379.471 518.104,387.138 515.5,394.5C 511.424,400.709 505.758,404.709 498.5,406.5C 496.167,406.5 493.833,406.5 491.5,406.5C 491.5,401.833 491.5,397.167 491.5,392.5C 495.226,393.049 497.893,391.715 499.5,388.5C 500.15,388.196 500.817,387.863 501.5,387.5C 502.123,385.034 502.957,382.701 504,380.5C 505.527,367.875 506.36,355.208 506.5,342.5C 511.74,341.551 517.073,341.218 522.5,341.5C 520.839,351.417 519.839,361.417 519.5,371.5 Z"/></g>
<g><path style="opacity:1" fill="#fafefb" d="M 591.5,381.5 C 592.782,385.304 595.115,388.471 598.5,391C 600.134,391.494 601.801,391.66 603.5,391.5C 603.5,396.833 603.5,402.167 603.5,407.5C 601.5,407.5 599.5,407.5 597.5,407.5C 586.274,404.608 578.941,397.608 575.5,386.5C 574.427,375.508 573.427,364.508 572.5,353.5C 572.5,349.833 572.5,346.167 572.5,342.5C 577.167,342.5 581.833,342.5 586.5,342.5C 587.855,354.455 588.689,366.455 589,378.5C 589.377,379.942 590.21,380.942 591.5,381.5 Z"/></g>
<g><path style="opacity:1" fill="#2db644" d="M 449.5,335.5 C 449.833,335.5 450.167,335.5 450.5,335.5C 450.5,352.833 450.5,370.167 450.5,387.5C 445.5,387.5 440.5,387.5 435.5,387.5C 439.97,386.514 444.637,386.181 449.5,386.5C 449.5,369.5 449.5,352.5 449.5,335.5 Z"/></g>
<g><path style="opacity:1" fill="#e1fde3" d="M 588.5,348.5 C 589.373,352.768 589.706,357.102 589.5,361.5C 589.376,367.069 590.043,372.402 591.5,377.5C 591.5,378.833 591.5,380.167 591.5,381.5C 590.21,380.942 589.377,379.942 589,378.5C 588.689,366.455 587.855,354.455 586.5,342.5C 581.833,342.5 577.167,342.5 572.5,342.5C 572.5,346.167 572.5,349.833 572.5,353.5C 571.532,351.393 571.198,349.059 571.5,346.5C 571.5,344.833 571.5,343.167 571.5,341.5C 576.833,341.5 582.167,341.5 587.5,341.5C 587.198,344.059 587.532,346.393 588.5,348.5 Z"/></g>
<g><path style="opacity:1" fill="#defce2" d="M 401.5,351.5 C 391.5,351.5 381.5,351.5 371.5,351.5C 371.5,353.5 371.5,355.5 371.5,357.5C 380.833,357.5 390.167,357.5 399.5,357.5C 390.014,358.494 380.348,358.827 370.5,358.5C 370.223,355.552 370.556,352.719 371.5,350C 376.5,349.833 381.5,349.667 386.5,349.5C 391.881,349.506 396.881,350.172 401.5,351.5 Z"/></g>
<g><path style="opacity:1" fill="#0fcb2d" d="M 352.5,351.5 C 352.5,353.167 352.5,354.833 352.5,356.5C 343.5,356.5 334.5,356.5 325.5,356.5C 324.833,356.167 324.167,355.833 323.5,355.5C 323.5,354.167 323.5,352.833 323.5,351.5C 333.167,351.5 342.833,351.5 352.5,351.5 Z"/></g>
<g><path style="opacity:1" fill="#24c438" d="M 401.5,351.5 C 401.747,353.858 401.081,355.858 399.5,357.5C 390.167,357.5 380.833,357.5 371.5,357.5C 371.5,355.5 371.5,353.5 371.5,351.5C 381.5,351.5 391.5,351.5 401.5,351.5 Z"/></g>
<g><path style="opacity:1" fill="#3ebd4a" d="M 482.5,334.5 C 478.03,335.486 473.363,335.819 468.5,335.5C 468.5,352.5 468.5,369.5 468.5,386.5C 473.363,386.181 478.03,386.514 482.5,387.5C 477.5,387.5 472.5,387.5 467.5,387.5C 467.5,370.167 467.5,352.833 467.5,335.5C 472.305,334.513 477.305,334.179 482.5,334.5 Z"/></g>
<g><path style="opacity:1" fill="#03d125" d="M 372.5,353.5 C 381.167,353.5 389.833,353.5 398.5,353.5C 398.5,354.5 398.5,355.5 398.5,356.5C 389.833,356.5 381.167,356.5 372.5,356.5C 372.5,355.5 372.5,354.5 372.5,353.5 Z"/></g>
<g><path style="opacity:1" fill="#d2fcd6" d="M 523.5,346.5 C 521.946,350.567 521.28,354.9 521.5,359.5C 521.665,362.85 521.498,366.183 521,369.5C 520.722,370.416 520.222,371.082 519.5,371.5C 519.839,361.417 520.839,351.417 522.5,341.5C 517.073,341.218 511.74,341.551 506.5,342.5C 511.735,340.55 517.402,339.883 523.5,340.5C 523.5,342.5 523.5,344.5 523.5,346.5 Z"/></g>
<g><path style="opacity:1" fill="#2cb842" d="M 352.5,351.5 C 353.461,353.265 353.795,355.265 353.5,357.5C 343.985,357.827 334.652,357.494 325.5,356.5C 334.5,356.5 343.5,356.5 352.5,356.5C 352.5,354.833 352.5,353.167 352.5,351.5 Z"/></g>
<g><path style="opacity:1" fill="#d0fed8" d="M 323.5,355.5 C 324.167,355.833 324.833,356.167 325.5,356.5C 334.652,357.494 343.985,357.827 353.5,357.5C 344.009,358.658 334.342,358.825 324.5,358C 323.748,357.329 323.414,356.496 323.5,355.5 Z"/></g>
<g><path style="opacity:1" fill="#99f5a1" d="M 697.5,357.5 C 697.5,357.833 697.5,358.167 697.5,358.5C 681.658,358.17 665.991,358.504 650.5,359.5C 649.833,359.5 649.167,359.5 648.5,359.5C 648.611,358.883 648.944,358.383 649.5,358C 665.497,357.5 681.497,357.333 697.5,357.5 Z"/></g>
<g><path style="opacity:1" fill="#9cf6a4" d="M 715.5,358.5 C 730.991,357.504 746.658,357.17 762.5,357.5C 764.027,357.427 765.027,358.094 765.5,359.5C 748.881,358.529 732.214,358.195 715.5,358.5 Z"/></g>
<g><path style="opacity:1" fill="#7adc82" d="M 523.5,346.5 C 523.414,350.857 523.08,355.19 522.5,359.5C 522.167,359.5 521.833,359.5 521.5,359.5C 521.28,354.9 521.946,350.567 523.5,346.5 Z"/></g>
<g><path style="opacity:1" fill="#32c342" d="M 715.5,358.5 C 732.214,358.195 748.881,358.529 765.5,359.5C 765.783,360.289 766.283,360.956 767,361.5C 767.667,368.833 767.667,376.167 767,383.5C 766.292,384.381 765.458,385.047 764.5,385.5C 765.722,377.283 765.722,369.116 764.5,361C 748.557,359.562 732.557,359.062 716.5,359.5C 716.83,376.342 716.497,393.008 715.5,409.5C 715.5,392.5 715.5,375.5 715.5,358.5 Z"/></g>
<g><path style="opacity:1" fill="#dafdda" d="M 762.5,357.5 C 746.658,357.17 730.991,357.504 715.5,358.5C 715.5,375.5 715.5,392.5 715.5,409.5C 709.833,409.5 704.167,409.5 698.5,409.5C 698.83,392.325 698.497,375.325 697.5,358.5C 697.5,358.167 697.5,357.833 697.5,357.5C 699.486,374.134 700.152,391.134 699.5,408.5C 704.167,408.5 708.833,408.5 713.5,408.5C 713.333,391.497 713.5,374.497 714,357.5C 730.264,356.17 746.431,356.17 762.5,357.5 Z"/></g>
<g><path style="opacity:1" fill="#d9fedd" d="M 631.5,349.5 C 630.555,367.139 630.222,384.806 630.5,402.5C 635.167,402.5 639.833,402.5 644.5,402.5C 643.851,388.459 644.518,374.792 646.5,361.5C 646.5,375.5 646.5,389.5 646.5,403.5C 640.833,403.5 635.167,403.5 629.5,403.5C 629.333,386.163 629.5,368.83 630,351.5C 630.278,350.584 630.778,349.918 631.5,349.5 Z"/></g>
<g><path style="opacity:1" fill="#42c54b" d="M 650.5,359.5 C 665.991,358.504 681.658,358.17 697.5,358.5C 698.497,375.325 698.83,392.325 698.5,409.5C 696.515,393.2 695.848,376.534 696.5,359.5C 681.167,359.5 665.833,359.5 650.5,359.5 Z"/></g>
<g><path style="opacity:1" fill="#cdfacf" d="M 506.5,342.5 C 506.36,355.208 505.527,367.875 504,380.5C 502.957,382.701 502.123,385.034 501.5,387.5C 500.817,387.863 500.15,388.196 499.5,388.5C 501.086,384.365 502.253,380.032 503,375.5C 504.053,364.337 505.219,353.337 506.5,342.5 Z"/></g>
<g><path style="opacity:1" fill="#40c94b" d="M 570.5,340.5 C 570.205,342.735 570.539,344.735 571.5,346.5C 571.198,349.059 571.532,351.393 572.5,353.5C 573.427,364.508 574.427,375.508 575.5,386.5C 574.842,385.602 574.176,384.602 573.5,383.5C 571.387,370.592 570.054,357.592 569.5,344.5C 569.511,342.955 569.844,341.622 570.5,340.5 Z"/></g>
<g><path style="opacity:1" fill="#33c444" d="M 648.5,359.5 C 648.5,374.5 648.5,389.5 648.5,404.5C 641.978,404.823 635.645,404.49 629.5,403.5C 635.167,403.5 640.833,403.5 646.5,403.5C 646.5,389.5 646.5,375.5 646.5,361.5C 646.833,360.5 647.5,359.833 648.5,359.5 Z"/></g>
<g><path style="opacity:1" fill="#b7f9c0" d="M 404.5,368.5 C 393.679,369.495 382.679,369.828 371.5,369.5C 371.5,371.833 371.5,374.167 371.5,376.5C 370.532,374.393 370.198,372.059 370.5,369.5C 381.654,368.505 392.988,368.172 404.5,368.5 Z"/></g>
<g><path style="opacity:1" fill="#88d68e" d="M 589.5,361.5 C 590.957,366.598 591.624,371.931 591.5,377.5C 590.043,372.402 589.376,367.069 589.5,361.5 Z"/></g>
<g><path style="opacity:1" fill="#dafdde" d="M 317.5,368.5 C 330.167,368.5 342.833,368.5 355.5,368.5C 355.784,371.777 355.451,374.943 354.5,378C 339.504,378.5 324.504,378.667 309.5,378.5C 309.5,381.833 309.5,385.167 309.5,388.5C 324.343,388.171 339.01,388.504 353.5,389.5C 338.5,389.5 323.5,389.5 308.5,389.5C 308.5,385.5 308.5,381.5 308.5,377.5C 323.676,377.829 338.676,377.496 353.5,376.5C 353.5,374.167 353.5,371.833 353.5,369.5C 342.5,369.5 331.5,369.5 320.5,369.5C 319.209,369.737 318.209,369.404 317.5,368.5 Z"/></g>
<g><path style="opacity:1" fill="#43c84d" d="M 521.5,359.5 C 521.833,359.5 522.167,359.5 522.5,359.5C 522.528,371.083 520.861,382.416 517.5,393.5C 516.817,393.863 516.15,394.196 515.5,394.5C 518.104,387.138 519.437,379.471 519.5,371.5C 520.222,371.082 520.722,370.416 521,369.5C 521.498,366.183 521.665,362.85 521.5,359.5 Z"/></g>
<g><path style="opacity:1" fill="#96eb9d" d="M 467.5,387.5 C 472.5,387.5 477.5,387.5 482.5,387.5C 483.833,393.167 483.833,398.833 482.5,404.5C 482.5,399.167 482.5,393.833 482.5,388.5C 477.305,388.821 472.305,388.487 467.5,387.5 Z"/></g>
<g><path style="opacity:1" fill="#24c137" d="M 408.5,367.5 C 408.5,368.5 408.5,369.5 408.5,370.5C 396.5,370.5 384.5,370.5 372.5,370.5C 372.5,372.167 372.5,373.833 372.5,375.5C 387.504,375.333 402.504,375.5 417.5,376C 418.812,380.803 418.812,385.636 417.5,390.5C 402.515,391.499 387.515,391.833 372.5,391.5C 372.5,392.5 372.5,393.5 372.5,394.5C 387.837,394.333 403.17,394.5 418.5,395C 419.471,400.072 419.805,405.238 419.5,410.5C 381.499,410.667 343.499,410.5 305.5,410C 304.833,409 304.167,408 303.5,407C 304.167,403 304.833,399 305.5,395C 321.163,394.5 336.83,394.333 352.5,394.5C 352.5,393.5 352.5,392.5 352.5,391.5C 337.496,391.667 322.496,391.5 307.5,391C 306.167,385.667 306.167,380.333 307.5,375C 322.496,374.5 337.496,374.333 352.5,374.5C 352.5,373.167 352.5,371.833 352.5,370.5C 341.654,370.828 330.987,370.494 320.5,369.5C 331.5,369.5 342.5,369.5 353.5,369.5C 353.5,371.833 353.5,374.167 353.5,376.5C 338.167,376.5 322.833,376.5 307.5,376.5C 307.182,381.032 307.515,385.366 308.5,389.5C 323.324,390.496 338.324,390.829 353.5,390.5C 353.5,392.167 353.5,393.833 353.5,395.5C 337.833,395.5 322.167,395.5 306.5,395.5C 306.182,400.032 306.515,404.366 307.5,408.5C 343.996,409.498 380.663,409.832 417.5,409.5C 417.5,404.833 417.5,400.167 417.5,395.5C 402.167,395.5 386.833,395.5 371.5,395.5C 371.5,393.833 371.5,392.167 371.5,390.5C 386.343,390.829 401.01,390.496 415.5,389.5C 416.485,385.366 416.818,381.032 416.5,376.5C 401.5,376.5 386.5,376.5 371.5,376.5C 371.5,374.167 371.5,371.833 371.5,369.5C 382.679,369.828 393.679,369.495 404.5,368.5C 405.833,368.167 407.167,367.833 408.5,367.5 Z"/></g>
<g><path style="opacity:1" fill="#6ada72" d="M 370.5,389.5 C 385.5,389.5 400.5,389.5 415.5,389.5C 401.01,390.496 386.343,390.829 371.5,390.5C 371.5,392.167 371.5,393.833 371.5,395.5C 371.167,395.5 370.833,395.5 370.5,395.5C 370.5,393.5 370.5,391.5 370.5,389.5 Z"/></g>
<g><path style="opacity:1" fill="#6ada73" d="M 308.5,389.5 C 323.5,389.5 338.5,389.5 353.5,389.5C 354.833,391.5 354.833,393.5 353.5,395.5C 353.5,393.833 353.5,392.167 353.5,390.5C 338.324,390.829 323.324,390.496 308.5,389.5 Z"/></g>
<g><path style="opacity:1" fill="#d4fed8" d="M 370.5,369.5 C 370.198,372.059 370.532,374.393 371.5,376.5C 386.5,376.5 401.5,376.5 416.5,376.5C 416.818,381.032 416.485,385.366 415.5,389.5C 400.5,389.5 385.5,389.5 370.5,389.5C 385.324,388.504 400.324,388.171 415.5,388.5C 415.5,385.167 415.5,381.833 415.5,378.5C 400.496,378.667 385.496,378.5 370.5,378C 369.183,375.063 369.183,372.23 370.5,369.5 Z"/></g>
<g><path style="opacity:1" fill="#a1f6aa" d="M 353.5,376.5 C 338.676,377.496 323.676,377.829 308.5,377.5C 308.5,381.5 308.5,385.5 308.5,389.5C 307.515,385.366 307.182,381.032 307.5,376.5C 322.833,376.5 338.167,376.5 353.5,376.5 Z"/></g>
<g><path style="opacity:1" fill="#bbfec6" d="M 754.5,387.5 C 754.833,387.5 755.167,387.5 755.5,387.5C 755.5,392.833 755.5,398.167 755.5,403.5C 760.5,403.5 765.5,403.5 770.5,403.5C 769.791,404.404 768.791,404.737 767.5,404.5C 763.167,404.5 758.833,404.5 754.5,404.5C 754.5,398.833 754.5,393.167 754.5,387.5 Z"/></g>
<g><path style="opacity:1" fill="#9cf0a3" d="M 353.5,395.5 C 353.5,395.833 353.5,396.167 353.5,396.5C 338.167,396.5 322.833,396.5 307.5,396.5C 307.5,400.5 307.5,404.5 307.5,408.5C 306.515,404.366 306.182,400.032 306.5,395.5C 322.167,395.5 337.833,395.5 353.5,395.5 Z"/></g>
<g><path style="opacity:1" fill="#95f39d" d="M 603.5,391.5 C 604.489,396.975 604.822,402.642 604.5,408.5C 601.941,408.802 599.607,408.468 597.5,407.5C 599.5,407.5 601.5,407.5 603.5,407.5C 603.5,402.167 603.5,396.833 603.5,391.5 Z"/></g>
<g><path style="opacity:1" fill="#dcffde" d="M 450.5,335.5 C 451.832,343.974 452.498,352.807 452.5,362C 452.333,370.833 452.167,379.667 452,388.5C 447.263,389.469 442.43,389.803 437.5,389.5C 437.5,394.167 437.5,398.833 437.5,403.5C 452.167,403.5 466.833,403.5 481.5,403.5C 481.5,398.833 481.5,394.167 481.5,389.5C 476.5,389.5 471.5,389.5 466.5,389.5C 466.17,371.326 466.503,353.326 467.5,335.5C 467.5,352.833 467.5,370.167 467.5,387.5C 472.305,388.487 477.305,388.821 482.5,388.5C 482.5,393.833 482.5,399.167 482.5,404.5C 467.167,404.5 451.833,404.5 436.5,404.5C 436.5,399.167 436.5,393.833 436.5,388.5C 441.363,388.819 446.03,388.486 450.5,387.5C 450.5,370.167 450.5,352.833 450.5,335.5 Z"/></g>
<g><path style="opacity:1" fill="#47c850" d="M 497.5,388.5 C 495.964,391.092 493.631,392.092 490.5,391.5C 490.5,397.167 490.5,402.833 490.5,408.5C 492.167,408.5 493.833,408.5 495.5,408.5C 493.44,409.811 491.274,409.811 489,408.5C 488.333,402.833 488.333,397.167 489,391.5C 491.86,390.577 494.693,389.577 497.5,388.5 Z"/></g>
<g><path style="opacity:1" fill="#ddfedc" d="M 497.5,388.5 C 498.167,388.5 498.833,388.5 499.5,388.5C 497.893,391.715 495.226,393.049 491.5,392.5C 491.5,397.167 491.5,401.833 491.5,406.5C 493.833,406.5 496.167,406.5 498.5,406.5C 497.5,407.167 496.5,407.833 495.5,408.5C 493.833,408.5 492.167,408.5 490.5,408.5C 490.5,402.833 490.5,397.167 490.5,391.5C 493.631,392.092 495.964,391.092 497.5,388.5 Z"/></g>
<g><path style="opacity:1" fill="#91e698" d="M 435.5,387.5 C 440.5,387.5 445.5,387.5 450.5,387.5C 446.03,388.486 441.363,388.819 436.5,388.5C 436.5,393.833 436.5,399.167 436.5,404.5C 451.833,404.5 467.167,404.5 482.5,404.5C 467.009,405.496 451.342,405.83 435.5,405.5C 435.5,399.5 435.5,393.5 435.5,387.5 Z"/></g>
<g><path style="opacity:1" fill="#bff6c2" d="M 546.5,404.5 C 539.774,409.226 532.44,410.56 524.5,408.5C 532.083,408.436 539.416,407.103 546.5,404.5 Z"/></g>
<g><path style="opacity:1" fill="#27bc3d" d="M 754.5,387.5 C 754.5,393.167 754.5,398.833 754.5,404.5C 758.833,404.5 763.167,404.5 767.5,404.5C 763.285,406.436 758.619,407.103 753.5,406.5C 753.177,399.978 753.51,393.645 754.5,387.5 Z"/></g>
<g><path style="opacity:1" fill="#d3f8d1" d="M 370.5,395.5 C 370.833,395.5 371.167,395.5 371.5,395.5C 386.833,395.5 402.167,395.5 417.5,395.5C 417.5,400.167 417.5,404.833 417.5,409.5C 380.663,409.832 343.996,409.498 307.5,408.5C 307.5,404.5 307.5,400.5 307.5,396.5C 322.833,396.5 338.167,396.5 353.5,396.5C 338.676,397.496 323.676,397.829 308.5,397.5C 308.5,400.833 308.5,404.167 308.5,407.5C 344.5,407.5 380.5,407.5 416.5,407.5C 416.5,404.167 416.5,400.833 416.5,397.5C 400.797,398.151 385.464,397.484 370.5,395.5 Z"/></g>
<g><path style="opacity:1" fill="#fdfefd" d="M 498.5,565.5 C 498.5,566.167 498.5,566.833 498.5,567.5C 495.549,572.451 491.549,576.451 486.5,579.5C 468.354,590.272 450.021,600.606 431.5,610.5C 421.561,613.138 411.561,613.138 401.5,610.5C 383.232,601.032 365.232,591.032 347.5,580.5C 346.417,579.635 346.251,578.635 347,577.5C 373.298,543.688 406.465,519.354 446.5,504.5C 453.363,502.547 460.03,500.213 466.5,497.5C 467.93,496.463 469.597,495.796 471.5,495.5C 473.167,495.5 474.833,495.5 476.5,495.5C 484.89,494.576 493.224,493.576 501.5,492.5C 501.667,511.836 501.5,531.17 501,550.5C 500.71,555.632 499.876,560.632 498.5,565.5 Z"/></g>
<g><path style="opacity:1" fill="#29bf3d" d="M 496.5,490.5 C 498.948,489.527 501.615,489.194 504.5,489.5C 504.667,511.503 504.5,533.503 504,555.5C 502.873,558.377 502.206,561.377 502,564.5C 500.961,565.71 499.794,566.71 498.5,567.5C 498.5,566.833 498.5,566.167 498.5,565.5C 500.947,562.014 502.281,558.014 502.5,553.5C 503.497,532.673 503.831,511.673 503.5,490.5C 501.167,490.5 498.833,490.5 496.5,490.5 Z"/></g>
<g><path style="opacity:1" fill="#22bd3a" d="M 555.5,490.5 C 553.5,490.5 551.5,490.5 549.5,490.5C 549.5,512.5 549.5,534.5 549.5,556.5C 548.503,534.34 548.169,512.006 548.5,489.5C 551.059,489.198 553.393,489.532 555.5,490.5 Z"/></g>
<g><path style="opacity:1" fill="#ebffe9" d="M 555.5,491.5 C 556.833,491.5 558.167,491.5 559.5,491.5C 559.5,491.833 559.5,492.167 559.5,492.5C 556.833,492.5 554.167,492.5 551.5,492.5C 551.5,514.833 551.5,537.167 551.5,559.5C 550.596,558.791 550.263,557.791 550.5,556.5C 550.5,534.833 550.5,513.167 550.5,491.5C 552.167,491.5 553.833,491.5 555.5,491.5 Z"/></g>
<g><path style="opacity:1" fill="#fdfefd" d="M 559.5,492.5 C 566.201,493.284 572.868,494.284 579.5,495.5C 580.167,495.5 580.833,495.5 581.5,495.5C 589.922,498.75 598.589,501.417 607.5,503.5C 646.066,519.404 678.566,543.737 705,576.5C 705.72,578.112 705.554,579.612 704.5,581C 687.594,590.28 670.928,599.78 654.5,609.5C 638.674,616.27 624.007,614.603 610.5,604.5C 593.149,595.326 576.149,585.492 559.5,575C 555.113,570.726 552.446,565.559 551.5,559.5C 551.5,537.167 551.5,514.833 551.5,492.5C 554.167,492.5 556.833,492.5 559.5,492.5 Z"/></g>
<g><path style="opacity:1" fill="#49ca52" d="M 559.5,492.5 C 559.5,492.167 559.5,491.833 559.5,491.5C 565.511,491.801 571.511,492.301 577.5,493C 578.381,493.708 579.047,494.542 579.5,495.5C 572.868,494.284 566.201,493.284 559.5,492.5 Z"/></g>
<g><path style="opacity:1" fill="#50d057" d="M 490.5,491.5 C 485.863,492.925 481.196,494.258 476.5,495.5C 474.833,495.5 473.167,495.5 471.5,495.5C 471.577,494.25 472.244,493.417 473.5,493C 479.189,492.627 484.855,492.127 490.5,491.5 Z"/></g>
<g><path style="opacity:1" fill="#a1efa8" d="M 555.5,490.5 C 555.5,490.833 555.5,491.167 555.5,491.5C 553.833,491.5 552.167,491.5 550.5,491.5C 550.5,513.167 550.5,534.833 550.5,556.5C 550.167,556.5 549.833,556.5 549.5,556.5C 549.5,534.5 549.5,512.5 549.5,490.5C 551.5,490.5 553.5,490.5 555.5,490.5 Z"/></g>
<g><path style="opacity:1" fill="#48c753" d="M 581.5,495.5 C 584.839,495.89 588.173,496.39 591.5,497C 597.021,499.108 602.354,501.275 607.5,503.5C 598.589,501.417 589.922,498.75 581.5,495.5 Z"/></g>
<g><path style="opacity:1" fill="#c9fbcc" d="M 466.5,497.5 C 460.03,500.213 453.363,502.547 446.5,504.5C 452.669,500.998 459.335,498.665 466.5,497.5 Z"/></g>
<g><path style="opacity:1" fill="#e7fee6" d="M 490.5,491.5 C 492.167,491.5 493.833,491.5 495.5,491.5C 497.833,491.5 500.167,491.5 502.5,491.5C 502.5,512.167 502.5,532.833 502.5,553.5C 502.281,558.014 500.947,562.014 498.5,565.5C 499.876,560.632 500.71,555.632 501,550.5C 501.5,531.17 501.667,511.836 501.5,492.5C 493.224,493.576 484.89,494.576 476.5,495.5C 481.196,494.258 485.863,492.925 490.5,491.5 Z"/></g>
<g><path style="opacity:1" fill="#a0efa8" d="M 495.5,491.5 C 495.5,490.833 495.833,490.5 496.5,490.5C 498.833,490.5 501.167,490.5 503.5,490.5C 503.831,511.673 503.497,532.673 502.5,553.5C 502.5,532.833 502.5,512.167 502.5,491.5C 500.167,491.5 497.833,491.5 495.5,491.5 Z"/></g>
<g><path style="opacity:1" fill="#6ed176" d="M 531.5,606.5 C 526.438,606.274 521.438,606.608 516.5,607.5C 516.611,606.883 516.944,606.383 517.5,606C 522.352,605.185 527.019,605.352 531.5,606.5 Z"/></g>
<g><path style="opacity:1" fill="#fefefe" d="M 531.5,606.5 C 538.519,607.897 545.185,610.397 551.5,614C 568.972,624.239 586.639,634.239 604.5,644C 610.843,648.169 615.51,653.669 618.5,660.5C 620.391,665.297 621.391,670.297 621.5,675.5C 621.735,701.513 621.402,727.513 620.5,753.5C 617.991,761.515 613.324,768.015 606.5,773C 585.769,785.364 564.769,797.197 543.5,808.5C 535.106,810.998 526.439,811.998 517.5,811.5C 512.957,810.707 508.624,809.207 504.5,807C 487.06,796.775 469.393,786.775 451.5,777C 443.207,771.878 436.873,765.044 432.5,756.5C 431.85,754.565 431.517,752.565 431.5,750.5C 430.545,724.188 430.212,697.855 430.5,671.5C 431.038,669.883 431.371,668.216 431.5,666.5C 434.276,658.47 438.943,651.637 445.5,646C 467.173,632.828 489.173,620.161 511.5,608C 513.134,607.506 514.801,607.34 516.5,607.5C 521.438,606.608 526.438,606.274 531.5,606.5 Z"/></g>
<g><path style="opacity:1" fill="#49cb52" d="M 610.5,604.5 C 624.007,614.603 638.674,616.27 654.5,609.5C 649.227,613.9 643.061,615.566 636,614.5C 632.5,614.333 629,614.167 625.5,614C 620.784,611.404 615.784,609.571 610.5,608.5C 610.5,607.167 610.5,605.833 610.5,604.5 Z"/></g>
<g><path style="opacity:1" fill="#dcfddd" d="M 401.5,610.5 C 411.561,613.138 421.561,613.138 431.5,610.5C 423.362,614.777 414.695,615.61 405.5,613C 403.934,612.392 402.6,611.558 401.5,610.5 Z"/></g>
<g><path style="opacity:1" fill="#fdfefd" d="M 388.5,663.5 C 388.754,666.014 389.587,668.348 391,670.5C 391.78,697.517 391.613,724.517 390.5,751.5C 387.773,756.731 384.106,761.231 379.5,765C 362.27,775.112 344.936,784.946 327.5,794.5C 326.07,794.421 324.736,794.754 323.5,795.5C 322.582,791.99 320.916,788.99 318.5,786.5C 316.13,781.354 314.13,776.02 312.5,770.5C 312.167,769.833 311.833,769.167 311.5,768.5C 309.631,760.955 308.298,753.288 307.5,745.5C 306.799,732.469 305.799,719.469 304.5,706.5C 305.938,691.83 307.272,677.163 308.5,662.5C 311.602,648.084 315.935,634.084 321.5,620.5C 325.136,620.819 328.469,621.985 331.5,624C 346.369,632.933 361.369,641.6 376.5,650C 381.787,653.448 385.787,657.948 388.5,663.5 Z"/></g>
<g><path style="opacity:1" fill="#fdfefd" d="M 731.5,623.5 C 731.502,627.165 732.835,630.165 735.5,632.5C 737.12,635.228 738.12,638.228 738.5,641.5C 739.222,645.506 740.055,649.506 741,653.5C 741.383,654.056 741.883,654.389 742.5,654.5C 743.768,656.905 744.435,659.572 744.5,662.5C 744.156,667.122 744.823,671.455 746.5,675.5C 747.473,677.948 747.806,680.615 747.5,683.5C 748.322,696.149 748.655,708.815 748.5,721.5C 746.918,731.36 745.585,741.36 744.5,751.5C 743.833,756.167 743.167,760.833 742.5,765.5C 739.916,770.803 738.083,776.47 737,782.5C 734.644,787.655 732.144,792.655 729.5,797.5C 710.702,786.933 692.035,776.1 673.5,765C 667.259,759.345 662.925,752.511 660.5,744.5C 660.5,719.167 660.5,693.833 660.5,668.5C 663.836,659.996 669.502,653.496 677.5,649C 695.198,639.8 712.532,629.966 729.5,619.5C 731.111,620.32 731.778,621.654 731.5,623.5 Z"/></g>
<g><path style="opacity:1" fill="#cbf4cc" d="M 731.5,623.5 C 733.742,626.082 735.076,629.082 735.5,632.5C 732.835,630.165 731.502,627.165 731.5,623.5 Z"/></g>
<g><path style="opacity:1" fill="#c9fbcd" d="M 738.5,641.5 C 740.61,645.502 741.943,649.835 742.5,654.5C 741.883,654.389 741.383,654.056 741,653.5C 740.055,649.506 739.222,645.506 738.5,641.5 Z"/></g>
<g><path style="opacity:1" fill="#c9facd" d="M 744.5,662.5 C 745.407,664.657 746.073,666.99 746.5,669.5C 746.5,671.5 746.5,673.5 746.5,675.5C 744.823,671.455 744.156,667.122 744.5,662.5 Z"/></g>
<g><path style="opacity:1" fill="#44c54d" d="M 660.5,668.5 C 660.5,693.833 660.5,719.167 660.5,744.5C 659.168,732.352 658.501,719.852 658.5,707C 658.667,694.5 658.833,682 659,669.5C 659.383,668.944 659.883,668.611 660.5,668.5 Z"/></g>
<g><path style="opacity:1" fill="#24bf3a" d="M 431.5,666.5 C 431.371,668.216 431.038,669.883 430.5,671.5C 429.337,696.33 429.17,721.33 430,746.5C 430.21,748.058 430.71,749.391 431.5,750.5C 431.517,752.565 431.85,754.565 432.5,756.5C 431.504,756.586 430.671,756.252 430,755.5C 429.667,754.167 429.333,752.833 429,751.5C 428.333,723.833 428.333,696.167 429,668.5C 429.417,667.244 430.25,666.577 431.5,666.5 Z"/></g>
<g><path style="opacity:1" fill="#43c54d" d="M 392.5,671.5 C 393.832,683.648 394.499,696.148 394.5,709C 394.333,721.5 394.167,734 394,746.5C 393.243,748.315 392.41,749.981 391.5,751.5C 392.465,724.859 392.798,698.192 392.5,671.5 Z"/></g>
<g><path style="opacity:1" fill="#e5fee5" d="M 621.5,675.5 C 622.8,700.687 622.8,726.02 621.5,751.5C 621.672,752.492 621.338,753.158 620.5,753.5C 621.402,727.513 621.735,701.513 621.5,675.5 Z"/></g>
<g><path style="opacity:1" fill="#dafed8" d="M 388.5,663.5 C 390.771,665.612 392.104,668.279 392.5,671.5C 392.798,698.192 392.465,724.859 391.5,751.5C 391.167,751.5 390.833,751.5 390.5,751.5C 391.613,724.517 391.78,697.517 391,670.5C 389.587,668.348 388.754,666.014 388.5,663.5 Z"/></g>
<g><path style="opacity:1" fill="#afe6b0" d="M 618.5,660.5 C 620.856,663.715 622.356,667.381 623,671.5C 623.667,697.167 623.667,722.833 623,748.5C 622.768,749.737 622.268,750.737 621.5,751.5C 622.8,726.02 622.8,700.687 621.5,675.5C 621.391,670.297 620.391,665.297 618.5,660.5 Z"/></g>
<g><path style="opacity:1" fill="#aefab8" d="M 430.5,671.5 C 430.212,697.855 430.545,724.188 431.5,750.5C 430.71,749.391 430.21,748.058 430,746.5C 429.17,721.33 429.337,696.33 430.5,671.5 Z"/></g>
<g><path style="opacity:1" fill="#3dc14b" d="M 746.5,669.5 C 748.16,674.472 749.327,679.806 750,685.5C 750.667,701.167 750.667,716.833 750,732.5C 747.683,742.73 745.683,753.063 744,763.5C 743.722,764.416 743.222,765.082 742.5,765.5C 743.167,760.833 743.833,756.167 744.5,751.5C 747.269,741.862 748.603,731.862 748.5,721.5C 749.166,716.511 749.499,711.344 749.5,706C 749.684,698.272 749.017,690.772 747.5,683.5C 747.806,680.615 747.473,677.948 746.5,675.5C 746.5,673.5 746.5,671.5 746.5,669.5 Z"/></g>
<g><path style="opacity:1" fill="#dffbe1" d="M 308.5,662.5 C 307.272,677.163 305.938,691.83 304.5,706.5C 305.799,719.469 306.799,732.469 307.5,745.5C 306.833,744.833 306.167,744.167 305.5,743.5C 305.5,742.833 305.5,742.167 305.5,741.5C 302.905,720.492 302.905,699.492 305.5,678.5C 305.58,672.875 306.58,667.542 308.5,662.5 Z"/></g>
<g><path style="opacity:1" fill="#25c938" d="M 305.5,678.5 C 302.905,699.492 302.905,720.492 305.5,741.5C 304.394,738.598 303.228,735.598 302,732.5C 301.333,716.5 301.333,700.5 302,684.5C 302.977,682.294 304.143,680.294 305.5,678.5 Z"/></g>
<g><path style="opacity:1" fill="#c9fcd1" d="M 747.5,683.5 C 749.017,690.772 749.684,698.272 749.5,706C 749.499,711.344 749.166,716.511 748.5,721.5C 748.655,708.815 748.322,696.149 747.5,683.5 Z"/></g>
<g><path style="opacity:1" fill="#ddfdde" d="M 748.5,721.5 C 748.603,731.862 747.269,741.862 744.5,751.5C 745.585,741.36 746.918,731.36 748.5,721.5 Z"/></g>
<g><path style="opacity:1" fill="#4bc953" d="M 305.5,743.5 C 306.167,744.167 306.833,744.833 307.5,745.5C 308.298,753.288 309.631,760.955 311.5,768.5C 309.324,765.207 307.824,761.54 307,757.5C 306.565,752.816 306.065,748.149 305.5,743.5 Z"/></g>
<g><path style="opacity:1" fill="#44ca4e" d="M 312.5,770.5 C 314.13,776.02 316.13,781.354 318.5,786.5C 319.15,788.435 319.483,790.435 319.5,792.5C 317.812,789.777 316.312,786.777 315,783.5C 313.369,779.311 312.536,774.978 312.5,770.5 Z"/></g>
<g><path style="opacity:1" fill="#28bc3e" d="M 1022.5,783.5 C 1022.71,793.709 1022.05,803.709 1020.5,813.5C 1019.86,803.111 1020.53,793.111 1022.5,783.5 Z"/></g>
<g><path style="opacity:1" fill="#28bc3d" d="M -0.5,784.5 C -0.5,784.167 -0.5,783.833 -0.5,783.5C 0.5,783.5 1.5,783.5 2.5,783.5C 2.5,793.5 2.5,803.5 2.5,813.5C 1.30506,803.85 0.305061,794.184 -0.5,784.5 Z"/></g>
<g><path style="opacity:1" fill="#d3fdd5" d="M 318.5,786.5 C 320.916,788.99 322.582,791.99 323.5,795.5C 324.736,794.754 326.07,794.421 327.5,794.5C 326.152,795.601 324.652,796.601 323,797.5C 322.098,795.569 320.931,793.903 319.5,792.5C 319.483,790.435 319.15,788.435 318.5,786.5 Z"/></g>
<g><path style="opacity:1" fill="#3fc549" d="M 658.5,809.5 C 654.363,807.373 650.029,805.706 645.5,804.5C 640.783,802.762 635.783,802.096 630.5,802.5C 630.611,801.883 630.944,801.383 631.5,801C 639.385,800.759 647.052,802.092 654.5,805C 656.041,806.371 657.375,807.871 658.5,809.5 Z"/></g>
<g><path style="opacity:1" fill="#d4fcd7" d="M 408.5,804.5 C 414.319,803.347 420.319,803.181 426.5,804C 430.46,805.811 434.126,807.978 437.5,810.5C 433.339,809.123 429.339,807.29 425.5,805C 419.843,804.501 414.176,804.334 408.5,804.5 Z"/></g>
<g><path style="opacity:1" fill="#e0fee1" d="M 630.5,802.5 C 635.783,802.096 640.783,802.762 645.5,804.5C 638.833,804.5 632.167,804.5 625.5,804.5C 626.93,803.463 628.597,802.796 630.5,802.5 Z"/></g>
<g><path style="opacity:1" fill="#fdfefd" d="M 408.5,804.5 C 414.176,804.334 419.843,804.501 425.5,805C 429.339,807.29 433.339,809.123 437.5,810.5C 456.499,820.34 475.166,830.84 493.5,842C 494.883,843.271 495.883,844.771 496.5,846.5C 498.308,851.066 499.808,855.732 501,860.5C 501.5,881.831 501.667,903.164 501.5,924.5C 492.963,923.267 484.297,922.267 475.5,921.5C 474.833,921.5 474.167,921.5 473.5,921.5C 471.485,920.076 469.152,919.41 466.5,919.5C 465.391,919.443 464.391,919.11 463.5,918.5C 463.389,917.883 463.056,917.383 462.5,917C 458.506,916.055 454.506,915.222 450.5,914.5C 443.735,912.587 437.402,909.92 431.5,906.5C 428.053,903.562 424.053,901.562 419.5,900.5C 390.499,885.301 366.165,864.468 346.5,838C 348.714,835.542 351.381,833.542 354.5,832C 368.395,824.22 382.395,816.72 396.5,809.5C 400.797,808.345 404.797,806.679 408.5,804.5 Z"/></g>
<g><path style="opacity:1" fill="#fdfefd" d="M 625.5,804.5 C 632.167,804.5 638.833,804.5 645.5,804.5C 650.029,805.706 654.363,807.373 658.5,809.5C 666.8,814.988 675.466,819.988 684.5,824.5C 689.502,828.003 694.835,831.003 700.5,833.5C 701.406,834.965 702.739,835.965 704.5,836.5C 705.583,837.365 705.749,838.365 705,839.5C 698.361,847.641 691.527,855.641 684.5,863.5C 676.102,871.238 667.435,878.572 658.5,885.5C 628.919,906.921 595.919,919.921 559.5,924.5C 556.833,924.5 554.167,924.5 551.5,924.5C 551.208,901.474 551.541,878.474 552.5,855.5C 554.281,848.78 557.947,843.28 563.5,839C 584.06,827.222 604.726,815.722 625.5,804.5 Z"/></g>
<g><path style="opacity:1" fill="#ccfbce" d="M 408.5,804.5 C 404.797,806.679 400.797,808.345 396.5,809.5C 399.768,806.293 403.768,804.627 408.5,804.5 Z"/></g>
<g><path style="opacity:1" fill="#cdfdd0" d="M 543.5,808.5 C 540.802,810.172 537.802,811.339 534.5,812C 528.651,812.818 522.985,812.652 517.5,811.5C 526.439,811.998 535.106,810.998 543.5,808.5 Z"/></g>
<g><path style="opacity:1" fill="#000100" d="M 1022.5,783.5 C 1022.83,783.5 1023.17,783.5 1023.5,783.5C 1023.5,863.5 1023.5,943.5 1023.5,1023.5C 943.5,1023.5 863.5,1023.5 783.5,1023.5C 783.5,1023.17 783.5,1022.83 783.5,1022.5C 793.709,1022.71 803.709,1022.05 813.5,1020.5C 813.833,1020.5 814.167,1020.5 814.5,1020.5C 819.71,1020.39 824.71,1019.72 829.5,1018.5C 835.076,1018.13 840.409,1017.13 845.5,1015.5C 856.769,1013.77 867.769,1010.93 878.5,1007C 915.04,992.809 945.874,970.643 971,940.5C 989.927,918.65 1003.09,893.65 1010.5,865.5C 1012.75,860.503 1014.08,855.17 1014.5,849.5C 1017.78,837.84 1019.78,825.84 1020.5,813.5C 1022.05,803.709 1022.71,793.709 1022.5,783.5 Z"/></g>
<g><path style="opacity:1" fill="#000100" d="M -0.5,784.5 C 0.305061,794.184 1.30506,803.85 2.5,813.5C 2.90336,824.49 4.57002,835.157 7.5,845.5C 8.25164,852.507 9.91831,859.173 12.5,865.5C 12.4095,868.152 13.0762,870.485 14.5,872.5C 16.3996,879.876 19.0663,886.876 22.5,893.5C 24.4068,898.984 27.0734,903.984 30.5,908.5C 32.8355,914.514 36.1688,919.848 40.5,924.5C 64.2899,959.626 95.6232,985.626 134.5,1002.5C 142.388,1006.47 150.722,1009.47 159.5,1011.5C 164.008,1013.13 168.675,1014.13 173.5,1014.5C 185.143,1017.89 197.143,1019.89 209.5,1020.5C 219.291,1022.05 229.291,1022.71 239.5,1022.5C 239.5,1022.83 239.5,1023.17 239.5,1023.5C 159.5,1023.5 79.5,1023.5 -0.5,1023.5C -0.5,943.833 -0.5,864.167 -0.5,784.5 Z"/></g>
<g><path style="opacity:1" fill="#41c94a" d="M 684.5,824.5 C 688.9,825.967 693.233,827.634 697.5,829.5C 698.524,830.852 699.524,832.185 700.5,833.5C 694.835,831.003 689.502,828.003 684.5,824.5 Z"/></g>
<g><path style="opacity:1" fill="#32b545" d="M 1014.5,849.5 C 1014.08,855.17 1012.75,860.503 1010.5,865.5C 1010.34,863.143 1010.5,860.81 1011,858.5C 1012.33,855.489 1013.49,852.489 1014.5,849.5 Z"/></g>
<g><path style="opacity:1" fill="#2eb841" d="M 7.5,845.5 C 9.64772,849.554 11.1477,853.888 12,858.5C 12.4966,860.81 12.6633,863.143 12.5,865.5C 9.91831,859.173 8.25164,852.507 7.5,845.5 Z"/></g>
<g><path style="opacity:1" fill="#22bd3a" d="M 550.5,860.5 C 550.5,861.5 550.5,862.5 550.5,863.5C 549.503,883.993 549.169,904.66 549.5,925.5C 548.833,914.839 548.5,904.005 548.5,893C 548.501,881.812 549.168,870.979 550.5,860.5 Z"/></g>
<g><path style="opacity:1" fill="#e7fee5" d="M 552.5,855.5 C 551.541,878.474 551.208,901.474 551.5,924.5C 554.167,924.5 556.833,924.5 559.5,924.5C 558.432,925.434 557.099,925.768 555.5,925.5C 553.833,925.5 552.167,925.5 550.5,925.5C 550.5,904.833 550.5,884.167 550.5,863.5C 550.5,862.5 550.5,861.5 550.5,860.5C 550.796,858.597 551.463,856.93 552.5,855.5 Z"/></g>
<g><path style="opacity:1" fill="#a2f0a9" d="M 550.5,863.5 C 550.5,884.167 550.5,904.833 550.5,925.5C 552.167,925.5 553.833,925.5 555.5,925.5C 553.5,926.833 551.5,926.833 549.5,925.5C 549.169,904.66 549.503,883.993 550.5,863.5 Z"/></g>
<g><path style="opacity:1" fill="#2eb841" d="M 14.5,872.5 C 17.092,877.769 19.592,883.102 22,888.5C 22.4935,890.134 22.6602,891.801 22.5,893.5C 19.0663,886.876 16.3996,879.876 14.5,872.5 Z"/></g>
<g><path style="opacity:1" fill="#33cb3e" d="M 684.5,863.5 C 678.37,869.473 672.703,875.973 667.5,883C 664.555,884.131 661.555,884.964 658.5,885.5C 667.435,878.572 676.102,871.238 684.5,863.5 Z"/></g>
<g><path style="opacity:1" fill="#25be3b" d="M 502.5,855.5 C 503.117,855.611 503.617,855.944 504,856.5C 504.83,879.67 504.663,902.67 503.5,925.5C 503.831,903.993 503.497,882.66 502.5,861.5C 502.5,859.5 502.5,857.5 502.5,855.5 Z"/></g>
<g><path style="opacity:1" fill="#9feea6" d="M 502.5,861.5 C 503.497,882.66 503.831,903.993 503.5,925.5C 501.052,926.473 498.385,926.806 495.5,926.5C 495.5,926.167 495.5,925.833 495.5,925.5C 497.833,925.5 500.167,925.5 502.5,925.5C 502.5,904.167 502.5,882.833 502.5,861.5 Z"/></g>
<g><path style="opacity:1" fill="#e6fde5" d="M 496.5,846.5 C 499.256,849.018 501.256,852.018 502.5,855.5C 502.5,857.5 502.5,859.5 502.5,861.5C 502.5,882.833 502.5,904.167 502.5,925.5C 500.167,925.5 497.833,925.5 495.5,925.5C 489.589,924.208 483.589,923.375 477.5,923C 476.584,922.722 475.918,922.222 475.5,921.5C 484.297,922.267 492.963,923.267 501.5,924.5C 501.667,903.164 501.5,881.831 501,860.5C 499.808,855.732 498.308,851.066 496.5,846.5 Z"/></g>
<g><path style="opacity:1" fill="#d1fcd5" d="M 419.5,900.5 C 424.053,901.562 428.053,903.562 431.5,906.5C 427.158,905.061 423.158,903.061 419.5,900.5 Z"/></g>
<g><path style="opacity:1" fill="#2abc3e" d="M 30.5,908.5 C 33.428,911.712 36.0947,915.212 38.5,919C 39.8561,920.567 40.5228,922.4 40.5,924.5C 36.1688,919.848 32.8355,914.514 30.5,908.5 Z"/></g>
<g><path style="opacity:1" fill="#cafbcd" d="M 450.5,914.5 C 454.506,915.222 458.506,916.055 462.5,917C 463.056,917.383 463.389,917.883 463.5,918.5C 458.842,917.911 454.509,916.578 450.5,914.5 Z"/></g>
<g><path style="opacity:1" fill="#b0f4b5" d="M 466.5,919.5 C 469.152,919.41 471.485,920.076 473.5,921.5C 471.435,921.483 469.435,921.15 467.5,920.5C 466.833,920.5 466.5,920.167 466.5,919.5 Z"/></g>
<g><path style="opacity:1" fill="#3dc549" d="M 467.5,920.5 C 469.435,921.15 471.435,921.483 473.5,921.5C 474.167,921.5 474.833,921.5 475.5,921.5C 475.918,922.222 476.584,922.722 477.5,923C 483.589,923.375 489.589,924.208 495.5,925.5C 495.5,925.833 495.5,926.167 495.5,926.5C 492.15,926.665 488.817,926.498 485.5,926C 479.048,924.901 473.048,923.067 467.5,920.5 Z"/></g>
<g><path style="opacity:1" fill="#2bbb3f" d="M 134.5,1002.5 C 138.767,1003.62 143.1,1004.62 147.5,1005.5C 151.674,1007.37 155.674,1009.37 159.5,1011.5C 150.722,1009.47 142.388,1006.47 134.5,1002.5 Z"/></g>
<g><path style="opacity:1" fill="#2abb3f" d="M 173.5,1014.5 C 186.01,1015.59 198.01,1017.59 209.5,1020.5C 197.143,1019.89 185.143,1017.89 173.5,1014.5 Z"/></g>
<g><path style="opacity:1" fill="#31b544" d="M 845.5,1015.5 C 840.409,1017.13 835.076,1018.13 829.5,1018.5C 830.694,1017.22 832.36,1016.56 834.5,1016.5C 838.163,1016.06 841.829,1015.72 845.5,1015.5 Z"/></g>
<g><path style="opacity:1" fill="#30b545" d="M 829.5,1018.5 C 824.71,1019.72 819.71,1020.39 814.5,1020.5C 819.25,1018.97 824.25,1018.3 829.5,1018.5 Z"/></g>
<g><path style="opacity:1" fill="#28bc3d" d="M 209.5,1020.5 C 219.889,1019.86 229.889,1020.53 239.5,1022.5C 229.291,1022.71 219.291,1022.05 209.5,1020.5 Z"/></g>
<g><path style="opacity:1" fill="#28bb3d" d="M 813.5,1020.5 C 803.709,1022.05 793.709,1022.71 783.5,1022.5C 793.111,1020.53 803.111,1019.86 813.5,1020.5 Z"/></g>
</svg>
